<?xml version="1.0" encoding="UTF-8" standalone="no"?>
<!-- Created with Inkscape (http://www.inkscape.org/) -->

<svg
   version="1.1"
   id="svg1"
   width="181.23466"
   height="171.14133"
   viewBox="0 0 181.23466 171.14133"
   sodipodi:docname="tmp_skip.pdf"
   xmlns:inkscape="http://www.inkscape.org/namespaces/inkscape"
   xmlns:sodipodi="http://sodipodi.sourceforge.net/DTD/sodipodi-0.dtd"
   xmlns="http://www.w3.org/2000/svg"
   xmlns:svg="http://www.w3.org/2000/svg">
  <defs
     id="defs1" />
  <sodipodi:namedview
     id="namedview1"
     pagecolor="#ffffff"
     bordercolor="#000000"
     borderopacity="0.25"
     inkscape:showpageshadow="2"
     inkscape:pageopacity="0.0"
     inkscape:pagecheckerboard="0"
     inkscape:deskcolor="#d1d1d1">
    <inkscape:page
       x="0"
       y="0"
       inkscape:label="1"
       id="page1"
       width="181.23466"
       height="171.14133"
       margin="0"
       bleed="0" />
  </sodipodi:namedview>
  <g
     id="g1"
     inkscape:groupmode="layer"
     inkscape:label="1">
    <path
       id="path1"
       d="M 12.45346,0 C 12.45346,6.87793 6.87793,12.45346 0,12.45346 -6.87793,12.45346 -12.45346,6.87793 -12.45346,0 c 0,-6.87793 5.57553,-12.45346 12.45346,-12.45346 6.87793,0 12.45346,5.57553 12.45346,12.45346 z"
       style="fill:none;stroke:#000000;stroke-width:0.3985;stroke-linecap:butt;stroke-linejoin:miter;stroke-miterlimit:10;stroke-dasharray:none;stroke-opacity:1"
       transform="matrix(1.3333333,0,0,-1.3333333,16.870667,39.546667)" />
    <path
       id="path2"
       d="m 5.343625,-3.9952109 c -0.3632812,0.1054687 -0.5390625,0.4453125 -0.5390625,0.6914062 0,0.2109375 0.1640625,0.4570313 0.4921875,0.4570313 0.3515625,0 0.7148438,-0.2929688 0.7148438,-0.7734375 0,-0.5273438 -0.5273438,-0.8789063 -1.125,-0.8789063 -0.5742188,0 -0.9375,0.421875 -1.0664063,0.609375 -0.2578125,-0.421875 -0.8085937,-0.609375 -1.3828125,-0.609375 -1.2539062,0 -1.93359375,1.21875 -1.93359375,1.546875 0,0.140625 0.15234375,0.140625 0.24609375,0.140625 0.1171875,0 0.1875,0 0.22265625,-0.1289062 C 1.2655,-3.8428672 1.9803438,-4.1475547 2.3905,-4.1475547 c 0.375,0 0.5625,0.1875 0.5625,0.5039063 0,0.1875 -0.140625,0.7382812 -0.234375,1.0898437 l -0.3398437,1.3710938 c -0.1523438,0.60937496 -0.5039063,0.90234371 -0.84375,0.90234371 -0.046875,0 -0.28125,0 -0.4804688,-0.15234375 0.3632813,-0.09375 0.5390625,-0.43359375 0.5390625,-0.67968746 0,-0.2226563 -0.1640625,-0.4570313 -0.4921875,-0.4570313 -0.3515625,0 -0.7265625,0.28125 -0.7265625,0.77343751 0,0.52734375 0.52734375,0.87890625 1.1367188,0.87890625 0.5742187,0 0.9375,-0.43359375 1.0664062,-0.609375 0.2460938,0.421875 0.8085938,0.609375 1.3710938,0.609375 1.265625,0 1.9335937,-1.23046876 1.9335937,-1.55859376 0,-0.140625 -0.140625,-0.140625 -0.234375,-0.140625 -0.1171875,0 -0.1875,0 -0.234375,0.1289063 -0.28125,0.91406246 -0.9960937,1.20703121 -1.40625,1.20703121 -0.3867187,0 -0.5625,-0.17578125 -0.5625,-0.4921875 0,-0.2109375 0.1289063,-0.73828121 0.2226563,-1.11328121 0.070312,-0.2578125 0.2929687,-1.1953125 0.3515625,-1.3476563 0.140625,-0.5976562 0.4921875,-0.9140625 0.84375,-0.9140625 0.046875,0 0.28125,0 0.4804687,0.1523438 z m 0,0"
       style="fill:#000000;fill-opacity:1;fill-rule:nonzero;stroke:none"
       aria-label="x"
       transform="matrix(1.3333333,0,0,1.3333333,7.5626667,40.838667)" />
    <path
       id="path3"
       d="m 1.7112422,-2.7528828 h 0.7148437 c 0.1289063,0 0.2226563,0 0.2226563,-0.1523438 0,-0.09375 -0.09375,-0.09375 -0.2109375,-0.09375 h -0.65625 l 0.2578125,-1.0429687 c 0,-0.023437 0.023437,-0.058594 0.023437,-0.09375 0,-0.1289063 -0.1054688,-0.2226563 -0.2460938,-0.2226563 -0.1757812,0 -0.28125,0.1171875 -0.328125,0.3046875 -0.046875,0.1757813 0.046875,-0.1640625 -0.2578125,1.0546875 H 0.51592969 c -0.12890625,0 -0.22265625,0 -0.22265625,0.1523438 0,0.09375 0.0820313,0.09375 0.2109375,0.09375 H 1.1604609 l -0.41015621,1.640625 c -0.0351563,0.17578124 -0.10546875,0.43359374 -0.10546875,0.51562499 0,0.421875 0.3515625,0.66796875 0.74999996,0.66796875 0.7734375,0 1.21875,-0.97265625 1.21875,-1.06640625 0,-0.09375 -0.09375,-0.09375 -0.1171875,-0.09375 -0.082031,0 -0.09375,0.011719 -0.140625,0.12890623 -0.1992187,0.4453125 -0.5507812,0.83203125 -0.9375,0.83203125 -0.1523437,0 -0.2460937,-0.0820313 -0.2460937,-0.33984375 0,-0.0703125 0.023437,-0.2109375 0.046875,-0.28125 z m 0,0"
       style="fill:#000000;fill-opacity:1;fill-rule:nonzero;stroke:none"
       aria-label="t"
       transform="matrix(1.3333333,0,0,1.3333333,16.316,42.830667)" />
    <path
       id="path4"
       d="m 2.987375,-1.5926328 c 0,-0.3632813 0,-1.7226563 -1.2890625,-1.7226563 -1.30078125,0 -1.30078125,1.359375 -1.30078125,1.7226563 0,0.3632812 0,1.69921874 1.30078125,1.69921874 1.2890625,0 1.2890625,-1.33593754 1.2890625,-1.69921874 z m -1.2890625,1.53515624 c -0.1875,0 -0.609375,-0.05859375 -0.73828125,-0.5625 -0.0585938,-0.26953125 -0.0703125,-0.62109374 -0.0703125,-1.03125004 0,-0.375 0,-0.7148437 0.0820313,-0.9960937 0.12890635,-0.421875 0.50390635,-0.5039063 0.72656255,-0.5039063 0.3632813,0 0.6210938,0.1875 0.7265625,0.5390625 0.070312,0.2578125 0.070312,0.6679688 0.070312,0.9609375 0,0.3398438 0,0.73828129 -0.070312,1.04296879 -0.1289062,0.48046875 -0.5273437,0.55078125 -0.7265626,0.55078125 z m 0,0"
       style="fill:#000000;fill-opacity:1;fill-rule:nonzero;stroke:none"
       aria-label="0"
       transform="matrix(1.3333333,0,0,1.3333333,20.329333,44.158667)" />
    <path
       id="path5"
       d="m 12.45346,-39.47882 c 0,6.87794 -5.57553,12.45346 -12.45346,12.45346 -6.87793,0 -12.45346,-5.57552 -12.45346,-12.45346 0,-6.87793 5.57553,-12.45346 12.45346,-12.45346 6.87793,0 12.45346,5.57553 12.45346,12.45346 z"
       style="fill:#cccccc;fill-opacity:1;fill-rule:nonzero;stroke:#000000;stroke-width:0.3985;stroke-linecap:butt;stroke-linejoin:miter;stroke-miterlimit:10;stroke-dasharray:none;stroke-opacity:1"
       transform="matrix(1.3333333,0,0,-1.3333333,16.870667,39.546667)" />
    <path
       id="path6"
       d="m 5.6708906,-2.7769219 c 0,-1.0664062 -0.7734375,-1.7226562 -2.0742187,-1.7226562 -2.0742188,0 -3.14062502,1.6054687 -3.14062502,2.859375 0,1.06640622 0.77343752,1.72265622 2.07421872,1.72265622 2.0742188,0 3.140625,-1.60546872 3.140625,-2.85937502 z m -3.1171875,2.49609377 c -0.421875,0 -0.9492187,-0.1640625 -0.9492187,-0.92578127 0,-0.3515625 0.2578125,-1.546875 0.5507812,-2.0742187 0.375,-0.6445313 0.9726563,-0.8671875 1.4179688,-0.8671875 0.421875,0 0.9492187,0.1757812 0.9492187,0.9257812 0,0.3515625 -0.2578125,1.546875 -0.5625,2.0742188 -0.3632812,0.64453122 -0.9609375,0.86718747 -1.40625,0.86718747 z m 0,0"
       style="fill:#000000;fill-opacity:1;fill-rule:nonzero;stroke:none"
       aria-label="o"
       transform="matrix(1.3333333,0,0,1.3333333,8.056,93.476)" />
    <path
       id="path7"
       d="m 1.7121016,-2.7533438 h 0.7148437 c 0.1289063,0 0.2226563,0 0.2226563,-0.1523437 0,-0.09375 -0.09375,-0.09375 -0.2109375,-0.09375 h -0.65625 l 0.2578125,-1.0429688 c 0,-0.023437 0.023437,-0.058594 0.023437,-0.09375 0,-0.1289062 -0.1054688,-0.2226562 -0.2460938,-0.2226562 -0.1757812,0 -0.28125,0.1171875 -0.328125,0.3046875 -0.046875,0.1757812 0.046875,-0.1640625 -0.2578125,1.0546875 H 0.51678906 c -0.12890625,0 -0.22265625,0 -0.22265625,0.1523437 0,0.09375 0.0820313,0.09375 0.2109375,0.09375 H 1.1613203 l -0.41015624,1.640625 c -0.0351563,0.1757813 -0.10546875,0.4335938 -0.10546875,0.51562505 0,0.421875 0.3515625,0.66796875 0.74999999,0.66796875 0.7734375,0 1.21875,-0.97265625 1.21875,-1.06640625 0,-0.09375 -0.09375,-0.09375 -0.1171875,-0.09375 -0.082031,0 -0.09375,0.011719 -0.140625,0.12890625 -0.1992187,0.4453125 -0.5507812,0.83203125 -0.9375,0.83203125 -0.1523437,0 -0.2460937,-0.0820313 -0.2460937,-0.33984375 0,-0.0703125 0.023437,-0.2109375 0.046875,-0.28125 z m 0,0"
       style="fill:#000000;fill-opacity:1;fill-rule:nonzero;stroke:none"
       aria-label="t"
       transform="matrix(1.3333333,0,0,1.3333333,15.822667,95.468)" />
    <path
       id="path8"
       d="m 2.9882344,-1.5940938 c 0,-0.3632812 0,-1.7226562 -1.2890625,-1.7226562 -1.30078127,0 -1.30078127,1.359375 -1.30078127,1.7226562 0,0.3632813 0,1.6992188 1.30078127,1.6992188 1.2890625,0 1.2890625,-1.3359375 1.2890625,-1.6992188 z m -1.2890625,1.5351563 c -0.1875,0 -0.609375,-0.05859375 -0.73828127,-0.5625 -0.0585938,-0.26953125 -0.0703125,-0.6210938 -0.0703125,-1.03125 0,-0.375 0,-0.7148438 0.0820313,-0.9960938 0.12890617,-0.421875 0.50390627,-0.5039062 0.72656257,-0.5039062 0.3632812,0 0.6210937,0.1875 0.7265625,0.5390625 0.070312,0.2578125 0.070312,0.6679687 0.070312,0.9609375 0,0.3398437 0,0.73828125 -0.070312,1.04296875 C 2.2968281,-0.12925 1.8983906,-0.0589375 1.6991719,-0.0589375 Z m 0,0"
       style="fill:#000000;fill-opacity:1;fill-rule:nonzero;stroke:none"
       aria-label="0"
       transform="matrix(1.3333333,0,0,1.3333333,19.836,96.797333)" />
    <path
       id="path9"
       d="m 12.45346,-86.04434 c 0,6.87793 -5.57553,12.45346 -12.45346,12.45346 -6.87793,0 -12.45346,-5.57553 -12.45346,-12.45346 0,-6.87795 5.57553,-12.45346 12.45346,-12.45346 6.87793,0 12.45346,5.57551 12.45346,12.45346 z"
       style="fill:#cccccc;fill-opacity:1;fill-rule:nonzero;stroke:#000000;stroke-width:0.3985;stroke-linecap:butt;stroke-linejoin:miter;stroke-miterlimit:10;stroke-dasharray:none;stroke-opacity:1"
       transform="matrix(1.3333333,0,0,-1.3333333,16.870667,39.546667)" />
    <path
       id="path10"
       d="m 5.6708906,-2.7774688 c 0,-1.0664062 -0.7734375,-1.7226562 -2.0742187,-1.7226562 -2.0742188,0 -3.14062502,1.6054687 -3.14062502,2.859375 0,1.06640625 0.77343752,1.72265625 2.07421872,1.72265625 2.0742188,0 3.140625,-1.60546875 3.140625,-2.85937505 z M 2.5537031,-0.281375 c -0.421875,0 -0.9492187,-0.1640625 -0.9492187,-0.9257813 0,-0.3515625 0.2578125,-1.546875 0.5507812,-2.0742187 0.375,-0.6445313 0.9726563,-0.8671875 1.4179688,-0.8671875 0.421875,0 0.9492187,0.1757812 0.9492187,0.9257812 0,0.3515625 -0.2578125,1.546875 -0.5625,2.0742188 -0.3632812,0.64453125 -0.9609375,0.8671875 -1.40625,0.8671875 z m 0,0"
       style="fill:#000000;fill-opacity:1;fill-rule:nonzero;stroke:none"
       aria-label="o"
       transform="matrix(1.3333333,0,0,1.3333333,8.056,155.56267)" />
    <path
       id="path11"
       d="m 1.7121016,-2.7538906 h 0.7148437 c 0.1289063,0 0.2226563,0 0.2226563,-0.1523438 0,-0.09375 -0.09375,-0.09375 -0.2109375,-0.09375 h -0.65625 l 0.2578125,-1.0429687 c 0,-0.023437 0.023437,-0.058594 0.023437,-0.09375 0,-0.1289063 -0.1054688,-0.2226563 -0.2460938,-0.2226563 -0.1757812,0 -0.28125,0.1171875 -0.328125,0.3046875 -0.046875,0.1757813 0.046875,-0.1640625 -0.2578125,1.0546875 H 0.51678906 c -0.12890625,0 -0.22265625,0 -0.22265625,0.1523438 0,0.09375 0.0820313,0.09375 0.2109375,0.09375 H 1.1613203 l -0.41015624,1.640625 c -0.0351563,0.17578122 -0.10546875,0.43359372 -0.10546875,0.51562497 0,0.421875 0.3515625,0.66796875 0.74999999,0.66796875 0.7734375,0 1.21875,-0.97265625 1.21875,-1.06640625 0,-0.09375 -0.09375,-0.09375 -0.1171875,-0.09375 -0.082031,0 -0.09375,0.011719 -0.140625,0.12890619 -0.1992187,0.4453125 -0.5507812,0.83203125 -0.9375,0.83203125 -0.1523437,0 -0.2460937,-0.0820313 -0.2460937,-0.33984375 0,-0.0703125 0.023437,-0.2109375 0.046875,-0.28125 z m 0,0"
       style="fill:#000000;fill-opacity:1;fill-rule:nonzero;stroke:none"
       aria-label="t"
       transform="matrix(1.3333333,0,0,1.3333333,15.822667,157.55467)" />
    <path
       id="path12"
       d="m 2.9882344,-1.5946406 c 0,-0.3632813 0,-1.7226563 -1.2890625,-1.7226563 -1.30078127,0 -1.30078127,1.359375 -1.30078127,1.7226563 0,0.3632812 0,1.69921872 1.30078127,1.69921872 1.2890625,0 1.2890625,-1.33593752 1.2890625,-1.69921872 z m -1.2890625,1.53515622 c -0.1875,0 -0.609375,-0.05859375 -0.73828127,-0.5625 -0.0585938,-0.26953125 -0.0703125,-0.62109372 -0.0703125,-1.03125002 0,-0.375 0,-0.7148437 0.0820313,-0.9960937 0.12890617,-0.421875 0.50390627,-0.5039063 0.72656257,-0.5039063 0.3632812,0 0.6210937,0.1875 0.7265625,0.5390625 0.070312,0.2578125 0.070312,0.6679688 0.070312,0.9609375 0,0.3398438 0,0.73828127 -0.070312,1.04296877 -0.1289063,0.48046875 -0.5273438,0.55078125 -0.7265626,0.55078125 z m 0,0"
       style="fill:#000000;fill-opacity:1;fill-rule:nonzero;stroke:none"
       aria-label="0"
       transform="matrix(1.3333333,0,0,1.3333333,19.836,158.884)" />
    <path
       id="path13"
       d="m 66.10568,-86.04434 c 0,6.87793 -5.57551,12.45346 -12.45346,12.45346 -6.87793,0 -12.45346,-5.57553 -12.45346,-12.45346 0,-6.87795 5.57553,-12.45346 12.45346,-12.45346 6.87795,0 12.45346,5.57551 12.45346,12.45346 z"
       style="fill:#cccccc;fill-opacity:1;fill-rule:nonzero;stroke:#000000;stroke-width:0.3985;stroke-linecap:butt;stroke-linejoin:miter;stroke-miterlimit:10;stroke-dasharray:none;stroke-opacity:1"
       transform="matrix(1.3333333,0,0,-1.3333333,16.870667,39.546667)" />
    <path
       id="path14"
       d="m 5.6712578,-2.7774688 c 0,-1.0664062 -0.7734375,-1.7226562 -2.0742187,-1.7226562 -2.0742188,0 -3.14062504,1.6054687 -3.14062504,2.859375 0,1.06640625 0.77343754,1.72265625 2.07421874,1.72265625 2.0742188,0 3.140625,-1.60546875 3.140625,-2.85937505 z M 2.5540703,-0.281375 c -0.421875,0 -0.9492187,-0.1640625 -0.9492187,-0.9257813 0,-0.3515625 0.2578125,-1.546875 0.5507812,-2.0742187 0.375,-0.6445313 0.9726563,-0.8671875 1.4179688,-0.8671875 0.421875,0 0.9492187,0.1757812 0.9492187,0.9257812 0,0.3515625 -0.2578125,1.546875 -0.5625,2.0742188 -0.3632812,0.64453125 -0.9609375,0.8671875 -1.40625,0.8671875 z m 0,0"
       style="fill:#000000;fill-opacity:1;fill-rule:nonzero;stroke:none"
       aria-label="o"
       transform="matrix(1.3333333,0,0,1.3333333,79.590667,155.56267)" />
    <path
       id="path15"
       d="m 1.7114687,-2.7538906 h 0.7148438 c 0.1289062,0 0.2226562,0 0.2226562,-0.1523438 0,-0.09375 -0.09375,-0.09375 -0.2109375,-0.09375 h -0.65625 l 0.2578125,-1.0429687 c 0,-0.023437 0.023437,-0.058594 0.023437,-0.09375 0,-0.1289063 -0.1054687,-0.2226563 -0.2460937,-0.2226563 -0.1757813,0 -0.28125,0.1171875 -0.328125,0.3046875 -0.046874,0.1757813 0.046876,-0.1640625 -0.257812,1.0546875 H 0.51615625 c -0.12890625,0 -0.22265625,0 -0.22265625,0.1523438 0,0.09375 0.0820313,0.09375 0.2109375,0.09375 h 0.65625 l -0.41015625,1.640625 C 0.715375,-0.93748438 0.6450625,-0.67967188 0.6450625,-0.59764063 c 0,0.421875 0.3515625,0.66796875 0.75,0.66796875 0.7734375,0 1.21875,-0.97265625 1.21875,-1.06640625 0,-0.09375 -0.09375,-0.09375 -0.1171875,-0.09375 -0.082031,0 -0.09375,0.011719 -0.140625,0.12890619 -0.1992188,0.4453125 -0.5507813,0.83203125 -0.9375,0.83203125 -0.1523438,0 -0.2460938,-0.0820313 -0.2460938,-0.33984375 0,-0.0703125 0.023437,-0.2109375 0.046875,-0.28125 z m 0,0"
       style="fill:#000000;fill-opacity:1;fill-rule:nonzero;stroke:none"
       aria-label="t"
       transform="matrix(1.3333333,0,0,1.3333333,87.358667,157.55467)" />
    <path
       id="path16"
       d="m 1.9807891,-3.1649531 c 0,-0.1523438 -0.011719,-0.1523438 -0.1757813,-0.1523438 -0.3515625,0.3164063 -0.90234374,0.3164063 -1.00781249,0.3164063 h -0.0820313 v 0.2226562 h 0.0820313 c 0.1171875,0 0.43359379,-0.011719 0.72656249,-0.140625 v 2.48437502 c 0,0.1640625 0,0.2109375 -0.52734374,0.2109375 H 0.75032031 V -8.90625e-4 C 1.0198516,-0.02432813 1.4651641,-0.02432813 1.7581328,-0.02432813 c 0.28125,0 0.7265625,0 0.9960938,0.023437505 V -0.22354688 H 2.5081328 c -0.5273437,0 -0.5273437,-0.046875 -0.5273437,-0.2109375 z m 0,0"
       style="fill:#000000;fill-opacity:1;fill-rule:nonzero;stroke:none"
       aria-label="1"
       transform="matrix(1.3333333,0,0,1.3333333,91.370667,158.884)" />
    <path
       id="path17"
       d="m 119.75792,-86.04434 c 0,6.87793 -5.57552,12.45346 -12.45346,12.45346 -6.87793,0 -12.45346,-5.57553 -12.45346,-12.45346 0,-6.87795 5.57553,-12.45346 12.45346,-12.45346 6.87794,0 12.45346,5.57551 12.45346,12.45346 z"
       style="fill:#cccccc;fill-opacity:1;fill-rule:nonzero;stroke:#000000;stroke-width:0.3985;stroke-linecap:butt;stroke-linejoin:miter;stroke-miterlimit:10;stroke-dasharray:none;stroke-opacity:1"
       transform="matrix(1.3333333,0,0,-1.3333333,16.870667,39.546667)" />
    <path
       id="path18"
       d="m 5.670625,-2.7774688 c 0,-1.0664062 -0.7734375,-1.7226562 -2.0742187,-1.7226562 -2.0742188,0 -3.14062505,1.6054687 -3.14062505,2.859375 0,1.06640625 0.77343755,1.72265625 2.07421875,1.72265625 2.0742188,0 3.140625,-1.60546875 3.140625,-2.85937505 z M 2.5534375,-0.281375 c -0.421875,0 -0.9492187,-0.1640625 -0.9492187,-0.9257813 0,-0.3515625 0.2578125,-1.546875 0.5507812,-2.0742187 0.375,-0.6445313 0.9726563,-0.8671875 1.4179688,-0.8671875 0.421875,0 0.9492187,0.1757812 0.9492187,0.9257812 0,0.3515625 -0.2578125,1.546875 -0.5625,2.0742188 -0.3632812,0.64453125 -0.9609375,0.8671875 -1.40625,0.8671875 z m 0,0"
       style="fill:#000000;fill-opacity:1;fill-rule:nonzero;stroke:none"
       aria-label="o"
       transform="matrix(1.3333333,0,0,1.3333333,151.12667,155.56267)" />
    <path
       id="path19"
       d="m 1.7118359,-2.7538906 h 0.7148438 c 0.1289062,0 0.2226562,0 0.2226562,-0.1523438 0,-0.09375 -0.09375,-0.09375 -0.2109375,-0.09375 h -0.65625 l 0.2578125,-1.0429687 c 0,-0.023437 0.023437,-0.058594 0.023437,-0.09375 0,-0.1289063 -0.1054687,-0.2226563 -0.2460937,-0.2226563 -0.1757813,0 -0.28125,0.1171875 -0.328125,0.3046875 -0.046875,0.1757813 0.046875,-0.1640625 -0.2578125,1.0546875 H 0.51652344 c -0.12890625,0 -0.22265625,0 -0.22265625,0.1523438 0,0.09375 0.0820313,0.09375 0.2109375,0.09375 H 1.1610547 l -0.41015626,1.640625 c -0.0351563,0.17578122 -0.10546875,0.43359372 -0.10546875,0.51562497 0,0.421875 0.3515625,0.66796875 0.75000001,0.66796875 0.7734375,0 1.21875,-0.97265625 1.21875,-1.06640625 0,-0.09375 -0.09375,-0.09375 -0.1171875,-0.09375 -0.082031,0 -0.09375,0.011719 -0.140625,0.12890619 -0.1992188,0.4453125 -0.5507813,0.83203125 -0.9375,0.83203125 -0.1523438,0 -0.2460938,-0.0820313 -0.2460938,-0.33984375 0,-0.0703125 0.023437,-0.2109375 0.046875,-0.28125 z m 0,0"
       style="fill:#000000;fill-opacity:1;fill-rule:nonzero;stroke:none"
       aria-label="t"
       transform="matrix(1.3333333,0,0,1.3333333,158.89333,157.55467)" />
    <path
       id="path20"
       d="M 2.929375,-0.96182813 H 2.7184375 c -0.011719,0.09375 -0.058594,0.3984375 -0.140625,0.45703125 -0.035156,0.0234375 -0.4570312,0.0234375 -0.5273437,0.0234375 h -0.984375 c 0.328125,-0.24609375 0.703125,-0.515625 0.9960937,-0.71484372 0.4570313,-0.3164063 0.8671875,-0.5976563 0.8671875,-1.125 0,-0.6445313 -0.5976562,-0.9960938 -1.3125,-0.9960938 -0.66796875,0 -1.16015625,0.3867188 -1.16015625,0.8789063 0,0.2578125 0.2109375,0.3046875 0.28125,0.3046875 0.140625,0 0.29296875,-0.09375 0.29296875,-0.2929688 0,-0.1875 -0.12890625,-0.28125 -0.28125,-0.2929687 0.140625,-0.234375 0.4335938,-0.375 0.7617188,-0.375 0.4804687,0 0.890625,0.28125 0.890625,0.7734375 0,0.421875 -0.2929688,0.7382812 -0.6796875,1.0546875 l -1.2070313,1.03124997 c -0.046875,0.046875 -0.0585937,0.046875 -0.0585937,0.0820313 v 0.152343705 h 2.3085937 z m 0,0"
       style="fill:#000000;fill-opacity:1;fill-rule:nonzero;stroke:none"
       aria-label="2"
       transform="matrix(1.3333333,0,0,1.3333333,162.90667,158.884)" />
    <path
       id="path21"
       d="m 119.75792,-46.56552 c 0,6.87793 -5.57552,12.45346 -12.45346,12.45346 -6.87793,0 -12.45346,-5.57553 -12.45346,-12.45346 0,-6.87795 5.57553,-12.45346 12.45346,-12.45346 6.87794,0 12.45346,5.57551 12.45346,12.45346 z"
       style="fill:none;stroke:#000000;stroke-width:0.3985;stroke-linecap:butt;stroke-linejoin:miter;stroke-miterlimit:10;stroke-dasharray:none;stroke-opacity:1"
       transform="matrix(1.3333333,0,0,-1.3333333,16.870667,39.546667)" />
    <path
       id="path22"
       d="m 5.3433594,-3.9957578 c -0.3632813,0.1054687 -0.5390625,0.4453125 -0.5390625,0.6914062 0,0.2109375 0.1640625,0.4570313 0.4921875,0.4570313 0.3515625,0 0.7148437,-0.2929688 0.7148437,-0.7734375 0,-0.5273438 -0.5273437,-0.8789063 -1.125,-0.8789063 -0.5742187,0 -0.9375,0.421875 -1.0664062,0.609375 -0.2578125,-0.421875 -0.8085938,-0.609375 -1.3828125,-0.609375 -1.2539063,0 -1.93359377,1.21875 -1.93359377,1.546875 0,0.140625 0.15234375,0.140625 0.24609375,0.140625 0.1171875,0 0.1875,0 0.22265625,-0.1289062 0.29296877,-0.9023438 1.00781247,-1.2070313 1.41796877,-1.2070313 0.375,0 0.5625,0.1875 0.5625,0.5039063 0,0.1875 -0.140625,0.7382812 -0.234375,1.0898437 l -0.3398438,1.3710938 c -0.1523437,0.60937499 -0.5039062,0.90234374 -0.84375,0.90234374 -0.046875,0 -0.28125,0 -0.4804687,-0.15234375 0.3632812,-0.09375 0.5390625,-0.43359375 0.5390625,-0.67968749 0,-0.2226563 -0.1640625,-0.4570313 -0.4921875,-0.4570313 -0.35156252,0 -0.72656252,0.28125 -0.72656252,0.77343754 0,0.52734375 0.52734375,0.87890625 1.13671872,0.87890625 0.5742188,0 0.9375,-0.43359375 1.0664063,-0.609375 0.2460937,0.421875 0.8085937,0.609375 1.3710937,0.609375 1.265625,0 1.9335938,-1.23046879 1.9335938,-1.55859379 0,-0.140625 -0.140625,-0.140625 -0.234375,-0.140625 -0.1171875,0 -0.1875,0 -0.234375,0.1289063 -0.28125,0.91406249 -0.9960938,1.20703124 -1.40625,1.20703124 -0.3867188,0 -0.5625,-0.17578125 -0.5625,-0.4921875 0,-0.2109375 0.1289062,-0.73828124 0.2226562,-1.11328124 0.070312,-0.2578125 0.2929688,-1.1953125 0.3515625,-1.3476563 0.140625,-0.5976562 0.4921875,-0.9140625 0.84375,-0.9140625 0.046875,0 0.28125,0 0.4804688,0.1523438 z m 0,0"
       style="fill:#000000;fill-opacity:1;fill-rule:nonzero;stroke:none"
       aria-label="x"
       transform="matrix(1.3333333,0,0,1.3333333,150.63333,102.92533)" />
    <path
       id="path23"
       d="m 1.7109766,-2.7534297 h 0.7148437 c 0.1289063,0 0.2226563,0 0.2226563,-0.1523437 0,-0.09375 -0.09375,-0.09375 -0.2109375,-0.09375 h -0.65625 l 0.2578125,-1.0429688 c 0,-0.023437 0.023437,-0.058594 0.023437,-0.09375 0,-0.1289062 -0.1054688,-0.2226562 -0.2460938,-0.2226562 -0.1757812,0 -0.28125,0.1171875 -0.328125,0.3046875 -0.046875,0.1757812 0.046875,-0.1640625 -0.2578125,1.0546875 H 0.51566406 c -0.12890625,0 -0.22265625,0 -0.22265625,0.1523437 0,0.09375 0.0820313,0.09375 0.2109375,0.09375 H 1.1601953 l -0.41015624,1.640625 c -0.0351563,0.17578126 -0.10546875,0.43359376 -0.10546875,0.51562501 0,0.421875 0.3515625,0.66796875 0.74999999,0.66796875 0.7734375,0 1.21875,-0.97265625 1.21875,-1.06640625 0,-0.09375 -0.09375,-0.09375 -0.1171875,-0.09375 -0.082031,0 -0.09375,0.011719 -0.140625,0.12890627 -0.1992187,0.4453125 -0.5507812,0.83203125 -0.9375,0.83203125 -0.1523437,0 -0.2460937,-0.0820313 -0.2460937,-0.33984375 0,-0.0703125 0.023437,-0.2109375 0.046875,-0.28125 z m 0,0"
       style="fill:#000000;fill-opacity:1;fill-rule:nonzero;stroke:none"
       aria-label="t"
       transform="matrix(1.3333333,0,0,1.3333333,159.38667,104.91733)" />
    <path
       id="path24"
       d="M 2.9285156,-0.96036719 H 2.7175781 c -0.011719,0.09375 -0.058594,0.3984375 -0.140625,0.45703125 -0.035156,0.0234375 -0.4570312,0.0234375 -0.5273437,0.0234375 h -0.984375 c 0.328125,-0.24609375 0.703125,-0.515625 0.9960937,-0.71484376 0.4570313,-0.3164062 0.8671875,-0.5976562 0.8671875,-1.125 0,-0.6445312 -0.5976562,-0.9960937 -1.3125,-0.9960937 -0.66796872,0 -1.16015622,0.3867187 -1.16015622,0.8789062 0,0.2578125 0.2109375,0.3046875 0.28125,0.3046875 0.140625,0 0.29296872,-0.09375 0.29296872,-0.2929687 0,-0.1875 -0.12890622,-0.28125 -0.28124997,-0.2929688 0.140625,-0.234375 0.43359377,-0.375 0.76171877,-0.375 0.4804687,0 0.890625,0.28125 0.890625,0.7734375 0,0.421875 -0.2929688,0.7382813 -0.6796875,1.0546875 l -1.20703127,1.03125001 c -0.046875,0.046875 -0.0585938,0.046875 -0.0585938,0.0820313 V 5.703125e-4 H 2.7644531 Z m 0,0"
       style="fill:#000000;fill-opacity:1;fill-rule:nonzero;stroke:none"
       aria-label="2"
       transform="matrix(1.3333333,0,0,1.3333333,163.4,106.24533)" />
    <path
       id="path25"
       d="m 119.75792,0 c 0,6.87793 -5.57552,12.45346 -12.45346,12.45346 C 100.42653,12.45346 94.851,6.87793 94.851,0 c 0,-6.87793 5.57553,-12.45346 12.45346,-12.45346 6.87794,0 12.45346,5.57553 12.45346,12.45346 z"
       style="fill:none;stroke:#000000;stroke-width:0.3985;stroke-linecap:butt;stroke-linejoin:miter;stroke-miterlimit:10;stroke-dasharray:none;stroke-opacity:1"
       transform="matrix(1.3333333,0,0,-1.3333333,16.870667,39.546667)" />
    <path
       id="path26"
       d="m 5.3433594,-3.9952109 c -0.3632813,0.1054687 -0.5390625,0.4453125 -0.5390625,0.6914062 0,0.2109375 0.1640625,0.4570313 0.4921875,0.4570313 0.3515625,0 0.7148437,-0.2929688 0.7148437,-0.7734375 0,-0.5273438 -0.5273437,-0.8789063 -1.125,-0.8789063 -0.5742187,0 -0.9375,0.421875 -1.0664062,0.609375 -0.2578125,-0.421875 -0.8085938,-0.609375 -1.3828125,-0.609375 -1.2539063,0 -1.93359377,1.21875 -1.93359377,1.546875 0,0.140625 0.15234375,0.140625 0.24609375,0.140625 0.1171875,0 0.1875,0 0.22265625,-0.1289062 0.29296877,-0.9023438 1.00781247,-1.2070313 1.41796877,-1.2070313 0.375,0 0.5625,0.1875 0.5625,0.5039063 0,0.1875 -0.140625,0.7382812 -0.234375,1.0898437 l -0.3398438,1.3710938 c -0.1523437,0.60937496 -0.5039062,0.90234371 -0.84375,0.90234371 -0.046875,0 -0.28125,0 -0.4804687,-0.15234375 0.3632812,-0.09375 0.5390625,-0.43359375 0.5390625,-0.67968746 0,-0.2226563 -0.1640625,-0.4570313 -0.4921875,-0.4570313 -0.35156252,0 -0.72656252,0.28125 -0.72656252,0.77343751 0,0.52734375 0.52734375,0.87890625 1.13671872,0.87890625 0.5742188,0 0.9375,-0.43359375 1.0664063,-0.609375 0.2460937,0.421875 0.8085937,0.609375 1.3710937,0.609375 1.265625,0 1.9335938,-1.23046876 1.9335938,-1.55859376 0,-0.140625 -0.140625,-0.140625 -0.234375,-0.140625 -0.1171875,0 -0.1875,0 -0.234375,0.1289063 -0.28125,0.91406246 -0.9960938,1.20703121 -1.40625,1.20703121 -0.3867188,0 -0.5625,-0.17578125 -0.5625,-0.4921875 0,-0.2109375 0.1289062,-0.73828121 0.2226562,-1.11328121 0.070312,-0.2578125 0.2929688,-1.1953125 0.3515625,-1.3476563 0.140625,-0.5976562 0.4921875,-0.9140625 0.84375,-0.9140625 0.046875,0 0.28125,0 0.4804688,0.1523438 z m 0,0"
       style="fill:#000000;fill-opacity:1;fill-rule:nonzero;stroke:none"
       aria-label="x"
       transform="matrix(1.3333333,0,0,1.3333333,150.63333,40.838667)" />
    <path
       id="path27"
       d="m 1.7109766,-2.7528828 h 0.7148437 c 0.1289063,0 0.2226563,0 0.2226563,-0.1523438 0,-0.09375 -0.09375,-0.09375 -0.2109375,-0.09375 h -0.65625 l 0.2578125,-1.0429687 c 0,-0.023437 0.023437,-0.058594 0.023437,-0.09375 0,-0.1289063 -0.1054688,-0.2226563 -0.2460938,-0.2226563 -0.1757812,0 -0.28125,0.1171875 -0.328125,0.3046875 -0.046875,0.1757813 0.046875,-0.1640625 -0.2578125,1.0546875 H 0.51566406 c -0.12890625,0 -0.22265625,0 -0.22265625,0.1523438 0,0.09375 0.0820313,0.09375 0.2109375,0.09375 H 1.1601953 l -0.41015624,1.640625 c -0.0351563,0.17578124 -0.10546875,0.43359374 -0.10546875,0.51562499 0,0.421875 0.3515625,0.66796875 0.74999999,0.66796875 0.7734375,0 1.21875,-0.97265625 1.21875,-1.06640625 0,-0.09375 -0.09375,-0.09375 -0.1171875,-0.09375 -0.082031,0 -0.09375,0.011719 -0.140625,0.12890623 -0.1992187,0.4453125 -0.5507812,0.83203125 -0.9375,0.83203125 -0.1523437,0 -0.2460937,-0.0820313 -0.2460937,-0.33984375 0,-0.0703125 0.023437,-0.2109375 0.046875,-0.28125 z m 0,0"
       style="fill:#000000;fill-opacity:1;fill-rule:nonzero;stroke:none"
       aria-label="t"
       transform="matrix(1.3333333,0,0,1.3333333,159.38667,42.830667)" />
    <path
       id="path28"
       d="M 2.9285156,-0.95982031 H 2.7175781 c -0.011719,0.09375 -0.058594,0.3984375 -0.140625,0.45703125 -0.035156,0.0234375 -0.4570312,0.0234375 -0.5273437,0.0234375 h -0.984375 c 0.328125,-0.24609375 0.703125,-0.515625 0.9960937,-0.71484374 0.4570313,-0.3164063 0.8671875,-0.5976563 0.8671875,-1.125 0,-0.6445313 -0.5976562,-0.9960938 -1.3125,-0.9960938 -0.66796872,0 -1.16015622,0.3867188 -1.16015622,0.8789063 0,0.2578125 0.2109375,0.3046875 0.28125,0.3046875 0.140625,0 0.29296872,-0.09375 0.29296872,-0.2929688 0,-0.1875 -0.12890622,-0.28125 -0.28124997,-0.2929687 0.140625,-0.234375 0.43359377,-0.375 0.76171877,-0.375 0.4804687,0 0.890625,0.28125 0.890625,0.7734375 0,0.421875 -0.2929688,0.7382812 -0.6796875,1.0546875 l -1.20703127,1.03124999 c -0.046875,0.046875 -0.0585938,0.046875 -0.0585938,0.0820313 v 0.1523437 H 2.7644531 Z m 0,0"
       style="fill:#000000;fill-opacity:1;fill-rule:nonzero;stroke:none"
       aria-label="2"
       transform="matrix(1.3333333,0,0,1.3333333,163.4,44.158667)" />
    <path
       id="path29"
       d="M 27.87392,4.55478 H 79.43055 V 29.4617 H 27.87392 Z"
       style="fill:none;stroke:#000000;stroke-width:0.3985;stroke-linecap:butt;stroke-linejoin:miter;stroke-miterlimit:10;stroke-dasharray:none;stroke-opacity:1"
       transform="matrix(1.3333333,0,0,-1.3333333,16.870667,39.546667)" />
    <path
       id="path30"
       d="m 4.4049531,-6.9506016 c -0.070312,-0.1289062 -0.09375,-0.1875 -0.2578125,-0.1875 -0.1757812,0 -0.1992187,0.058594 -0.2578125,0.1875 l -3.37499997,6.75000004 c -0.046875,0.09375 -0.046875,0.10546875 -0.046875,0.1171875 0,0.08203125 0.0585938,0.08203125 0.22265625,0.08203125 H 7.6041719 c 0.1523437,0 0.2109375,0 0.2109375,-0.08203125 0,-0.01171875 0,-0.0234375 -0.046875,-0.1171875 z m -0.5859375,0.8085938 2.6835938,5.37890624 H 1.1354219 Z m 0,0"
       style="fill:#000000;fill-opacity:1;fill-rule:nonzero;stroke:none"
       aria-label="∆"
       transform="matrix(1.3333333,0,0,1.3333333,58.462667,20.412)" />
    <path
       id="path31"
       d="m 2.0502187,-3.9857578 h 0.9375 c 0.1992188,0 0.3046875,0 0.3046875,-0.1992188 0,-0.1054687 -0.1054687,-0.1054687 -0.28125,-0.1054687 H 2.13225 c 0.3632812,-1.4179688 0.4101562,-1.6171875 0.4101562,-1.6757813 0,-0.1757812 -0.1171875,-0.2695312 -0.2929687,-0.2695312 -0.023437,0 -0.3046875,0.011719 -0.3984375,0.3515625 l -0.3867188,1.59375 H 0.52678125 c -0.19921875,0 -0.29296875,0 -0.29296875,0.1875 0,0.1171875 0.0703125,0.1171875 0.26953125,0.1171875 H 1.38225 c -0.71484375,2.8242187 -0.75,2.99999999 -0.75,3.17578124 0,0.5390625 0.375,0.9140625 0.9140625,0.9140625 1.0078125,0 1.5820312,-1.45312504 1.5820312,-1.53515624 0,-0.09375 -0.082031,-0.09375 -0.1171875,-0.09375 -0.09375,0 -0.1054687,0.023437 -0.1523437,0.140625 -0.4335938,1.03124999 -0.9609375,1.27734374 -1.3007813,1.27734374 -0.1992187,0 -0.3046875,-0.12890625 -0.3046875,-0.45703125 0,-0.24609375 0.023437,-0.31640625 0.058594,-0.48046879 z m 0,0"
       style="fill:#000000;fill-opacity:1;fill-rule:nonzero;stroke:none"
       aria-label="t"
       transform="matrix(1.3333333,0,0,1.3333333,69.532,20.412)" />
    <path
       id="path32"
       d="m 2.332125,-4.4309297 c 0,-0.1875 -0.011719,-0.1992187 -0.2109375,-0.1992187 -0.4453125,0.4335937 -1.078125,0.4453125 -1.359375,0.4453125 v 0.2460937 c 0.1640625,0 0.6210937,0 1.0078125,-0.1875 v 3.55078126 c 0,0.234375 0,0.328125 -0.6914063,0.328125 H 0.8086875 v 0.24609375 c 0.12890625,-0.01171875 0.984375,-0.0234375 1.2421875,-0.0234375 0.2109375,0 1.0898437,0.01171875 1.2421875,0.0234375 V -0.24733594 H 3.03525 c -0.703125,0 -0.703125,-0.09375 -0.703125,-0.328125 z m 0,0"
       style="fill:#000000;fill-opacity:1;fill-rule:nonzero;stroke:none"
       aria-label="1"
       transform="matrix(1.3333333,0,0,1.3333333,74.328,22.404)" />
    <path
       id="path33"
       d="m 4.0768359,-2.2982578 h 2.7773438 c 0.140625,0 0.328125,0 0.328125,-0.1992188 0,-0.1992187 -0.1875,-0.1992187 -0.328125,-0.1992187 H 4.0768359 v -2.7890625 c 0,-0.1289063 0,-0.328125 -0.1992187,-0.328125 -0.1992188,0 -0.1992188,0.1992187 -0.1992188,0.328125 v 2.7890625 H 0.88933594 c -0.140625,0 -0.328125,0 -0.328125,0.1992187 0,0.1992188 0.1875,0.1992188 0.328125,0.1992188 H 3.6783984 v 2.80078124 c 0,0.12890625 0,0.328125 0.1992188,0.328125 0.1992187,0 0.1992187,-0.19921875 0.1992187,-0.328125 z M 14.365898,-6.9506016 c -0.07031,-0.1289062 -0.09375,-0.1875 -0.257812,-0.1875 -0.175781,0 -0.199219,0.058594 -0.257813,0.1875 l -3.375,6.75000004 c -0.04687,0.09375 -0.04687,0.10546875 -0.04687,0.1171875 0,0.08203125 0.05859,0.08203125 0.222657,0.08203125 h 6.914062 c 0.152344,0 0.210938,0 0.210938,-0.08203125 0,-0.01171875 0,-0.0234375 -0.04687,-0.1171875 z m -0.585937,0.8085938 2.683594,5.37890624 h -5.367188 z m 0,0"
       style="fill:#000000;fill-opacity:1;fill-rule:nonzero;stroke:none"
       aria-label="+∆"
       transform="matrix(1.3333333,0,0,1.3333333,83.24,20.412)" />
    <path
       id="path34"
       d="m 2.0510938,-3.9857578 h 0.9375 c 0.1992187,0 0.3046875,0 0.3046875,-0.1992188 0,-0.1054687 -0.1054688,-0.1054687 -0.28125,-0.1054687 H 2.133125 c 0.3632813,-1.4179688 0.4101563,-1.6171875 0.4101563,-1.6757813 0,-0.1757812 -0.1171875,-0.2695312 -0.2929688,-0.2695312 -0.023437,0 -0.3046875,0.011719 -0.3984375,0.3515625 l -0.3867187,1.59375 H 0.52765625 c -0.19921875,0 -0.29296875,0 -0.29296875,0.1875 0,0.1171875 0.0703125,0.1171875 0.26953125,0.1171875 H 1.383125 c -0.71484375,2.8242187 -0.75,2.99999999 -0.75,3.17578124 0,0.5390625 0.375,0.9140625 0.9140625,0.9140625 1.0078125,0 1.5820313,-1.45312504 1.5820313,-1.53515624 0,-0.09375 -0.082031,-0.09375 -0.1171875,-0.09375 -0.09375,0 -0.1054688,0.023437 -0.1523438,0.140625 -0.4335937,1.03124999 -0.9609375,1.27734374 -1.3007812,1.27734374 -0.1992188,0 -0.3046875,-0.12890625 -0.3046875,-0.45703125 0,-0.24609375 0.023437,-0.31640625 0.058594,-0.48046879 z m 0,0"
       style="fill:#000000;fill-opacity:1;fill-rule:nonzero;stroke:none"
       aria-label="t"
       transform="matrix(1.3333333,0,0,1.3333333,107.59333,20.412)" />
    <path
       id="path35"
       d="m 3.5165937,-1.2668672 h -0.234375 c -0.023437,0.1523438 -0.082031,0.56250001 -0.1757812,0.63281251 -0.058594,0.0351563 -0.5976563,0.0351563 -0.6914063,0.0351563 H 1.1259687 C 1.86425,-1.2434297 2.1103437,-1.4426484 2.5205,-1.7707734 c 0.515625,-0.4101563 0.9960937,-0.84375 0.9960937,-1.5 0,-0.84375 -0.7382812,-1.359375 -1.6289062,-1.359375 -0.8671875,0 -1.453125,0.609375 -1.453125,1.2421875 0,0.3632812 0.3046875,0.3984375 0.375,0.3984375 0.1640625,0 0.375,-0.1171875 0.375,-0.375 0,-0.1289063 -0.058594,-0.3632813 -0.421875,-0.3632813 0.22265625,-0.5039062 0.6914062,-0.65625 1.0195312,-0.65625 0.703125,0 1.0664063,0.5507813 1.0664063,1.1132813 0,0.609375 -0.4335938,1.0898437 -0.65625,1.3359375 l -1.6875,1.66406246 c -0.0703125,0.0585937 -0.0703125,0.0703125 -0.0703125,0.26953125 H 3.317375 Z m 0,0"
       style="fill:#000000;fill-opacity:1;fill-rule:nonzero;stroke:none"
       aria-label="2"
       transform="matrix(1.3333333,0,0,1.3333333,112.38933,22.404)" />
    <path
       id="path36"
       d="M 12.65271,0 H 89.77"
       style="fill:none;stroke:#000000;stroke-width:0.3985;stroke-linecap:butt;stroke-linejoin:miter;stroke-miterlimit:10;stroke-dasharray:none;stroke-opacity:1"
       transform="matrix(1.3333333,0,0,-1.3333333,16.870667,39.546667)" />
    <path
       id="path37"
       d="M 4.41391,0 0.19925,1.6317 V 0 -1.6317 Z"
       style="fill:#000000;fill-opacity:1;fill-rule:nonzero;stroke:#000000;stroke-width:0.3985;stroke-linecap:butt;stroke-linejoin:miter;stroke-miterlimit:10;stroke-dasharray:none;stroke-opacity:1"
       transform="matrix(1.3333333,0,0,-1.3333333,136.43115,39.546667)" />
    <path
       id="path38"
       d="M 79.62979,8.7777 90.59097,5.29956"
       style="fill:none;stroke:#000000;stroke-width:0.3985;stroke-linecap:butt;stroke-linejoin:miter;stroke-miterlimit:10;stroke-dasharray:none;stroke-opacity:1"
       transform="matrix(1.3333333,0,0,-1.3333333,16.870667,39.546667)" />
    <path
       id="path39"
       d="M 4.41391,0 0.19925,1.6317 V 0 -1.6317 Z"
       style="fill:#000000;fill-opacity:1;fill-rule:nonzero;stroke:#000000;stroke-width:0.3985;stroke-linecap:butt;stroke-linejoin:miter;stroke-miterlimit:10;stroke-dasharray:none;stroke-opacity:1"
       transform="matrix(1.27084,0.40321333,0.40321333,-1.27084,137.532,32.4404)" />
    <path
       id="path40"
       d="m 0,-26.8261 v 9.29165"
       style="fill:none;stroke:#000000;stroke-width:0.3985;stroke-linecap:butt;stroke-linejoin:miter;stroke-miterlimit:10;stroke-dasharray:2.98883, 2.98883;stroke-dashoffset:0;stroke-opacity:1"
       transform="matrix(1.3333333,0,0,-1.3333333,16.870667,39.546667)" />
    <path
       id="path41"
       d="M 4.41391,0 0.19925,1.6317 V 0 -1.6317 Z"
       style="fill:#000000;fill-opacity:1;fill-rule:nonzero;stroke:#000000;stroke-width:0.3985;stroke-linecap:butt;stroke-linejoin:miter;stroke-miterlimit:10;stroke-dasharray:none;stroke-opacity:1"
       transform="matrix(0,-1.3333333,-1.3333333,0,16.870667,63.0588)" />
    <path
       id="path42"
       d="m 11.87405,-81.67567 78.97501,29.05593"
       style="fill:none;stroke:#000000;stroke-width:0.3985;stroke-linecap:butt;stroke-linejoin:miter;stroke-miterlimit:10;stroke-dasharray:2.98883, 2.98883;stroke-dashoffset:0;stroke-opacity:1"
       transform="matrix(1.3333333,0,0,-1.3333333,16.870667,39.546667)" />
    <path
       id="path43"
       d="M 4.41391,0 0.19925,1.6317 V 0 -1.6317 Z"
       style="fill:#000000;fill-opacity:1;fill-rule:nonzero;stroke:#000000;stroke-width:0.3985;stroke-linecap:butt;stroke-linejoin:miter;stroke-miterlimit:10;stroke-dasharray:none;stroke-opacity:1"
       transform="matrix(1.25128,-0.46037333,-0.46037333,-1.25128,137.87807,109.75219)" />
    <path
       id="path44"
       d="m 63.84297,-78.5461 29.33917,21.58878"
       style="fill:none;stroke:#000000;stroke-width:0.3985;stroke-linecap:butt;stroke-linejoin:miter;stroke-miterlimit:10;stroke-dasharray:2.98883, 2.98883;stroke-dashoffset:0;stroke-opacity:1"
       transform="matrix(1.3333333,0,0,-1.3333333,16.870667,39.546667)" />
    <path
       id="path45"
       d="M 4.41391,0 0.19925,1.6317 V 0 -1.6317 Z"
       style="fill:#000000;fill-opacity:1;fill-rule:nonzero;stroke:#000000;stroke-width:0.3985;stroke-linecap:butt;stroke-linejoin:miter;stroke-miterlimit:10;stroke-dasharray:none;stroke-opacity:1"
       transform="matrix(1.0738667,-0.7902,-0.7902,-1.0738667,141.00653,115.56852)" />
    <path
       id="path46"
       d="m 107.30446,-73.39163 v 9.29164"
       style="fill:none;stroke:#000000;stroke-width:0.3985;stroke-linecap:butt;stroke-linejoin:miter;stroke-miterlimit:10;stroke-dasharray:2.98883, 2.98883;stroke-dashoffset:0;stroke-opacity:1"
       transform="matrix(1.3333333,0,0,-1.3333333,16.870667,39.546667)" />
    <path
       id="path47"
       d="M 4.41391,0 0.19925,1.6317 V 0 -1.6317 Z"
       style="fill:#000000;fill-opacity:1;fill-rule:nonzero;stroke:#000000;stroke-width:0.3985;stroke-linecap:butt;stroke-linejoin:miter;stroke-miterlimit:10;stroke-dasharray:none;stroke-opacity:1"
       transform="matrix(0,-1.3333333,-1.3333333,0,159.94328,125.14616)" />
    <path
       id="path48"
       d="m 112.6516,-35.09842 c 0.44921,0.96338 -1.3814,2.40344 -0.93216,3.36684 0.27688,0.71803 1.54803,0.93873 2.8807,1.16765 1.33261,0.22889 2.60379,0.4496 2.88069,1.16764 0.1727,0.74993 -0.75683,1.64464 -1.73272,2.58059 -0.97588,0.93591 -1.90543,1.83062 -1.73271,2.58058 0.0379,0.76863 1.17576,1.37666 2.36949,2.01175 1.19371,0.63507 2.33163,1.2431 2.36951,2.01176 -0.10523,0.76231 -1.29213,1.26804 -2.53705,1.79581 -1.24486,0.52774 -2.4318,1.03346 -2.53704,1.7958 -1.73724,0.96056 0.27301,2.13683 -0.0403,3.15256 l 1.17362,-2.37643"
       style="fill:none;stroke:#000000;stroke-width:0.3985;stroke-linecap:butt;stroke-linejoin:miter;stroke-miterlimit:10;stroke-dasharray:none;stroke-opacity:1"
       transform="matrix(1.3333333,0,0,-1.3333333,16.870667,39.546667)" />
    <path
       id="path49"
       d="M 4.41391,0 0.19925,1.6317 V 0 -1.6317 Z"
       style="fill:#000000;fill-opacity:1;fill-rule:nonzero;stroke:#000000;stroke-width:0.3985;stroke-linecap:butt;stroke-linejoin:miter;stroke-miterlimit:10;stroke-dasharray:none;stroke-opacity:1"
       transform="matrix(-0.59049333,-1.1953733,-1.1953733,0.59049333,170.01435,60.790933)" />
  </g>
</svg>
