<?xml version="1.0" encoding="UTF-8" standalone="no"?>
<!-- Created with Inkscape (http://www.inkscape.org/) -->

<svg
   version="1.1"
   id="svg1"
   width="181.23466"
   height="143.07066"
   viewBox="0 0 181.23466 143.07066"
   sodipodi:docname="tmp_latent.pdf"
   xmlns:inkscape="http://www.inkscape.org/namespaces/inkscape"
   xmlns:sodipodi="http://sodipodi.sourceforge.net/DTD/sodipodi-0.dtd"
   xmlns="http://www.w3.org/2000/svg"
   xmlns:svg="http://www.w3.org/2000/svg">
  <defs
     id="defs1" />
  <sodipodi:namedview
     id="namedview1"
     pagecolor="#ffffff"
     bordercolor="#000000"
     borderopacity="0.25"
     inkscape:showpageshadow="2"
     inkscape:pageopacity="0.0"
     inkscape:pagecheckerboard="0"
     inkscape:deskcolor="#d1d1d1">
    <inkscape:page
       x="0"
       y="0"
       inkscape:label="1"
       id="page1"
       width="181.23466"
       height="143.07066"
       margin="0"
       bleed="0" />
  </sodipodi:namedview>
  <g
     id="g1"
     inkscape:groupmode="layer"
     inkscape:label="1">
    <path
       id="path1"
       d="M 12.45346,0 C 12.45346,6.87793 6.87793,12.45346 0,12.45346 -6.87793,12.45346 -12.45346,6.87793 -12.45346,0 c 0,-6.87793 5.57553,-12.45346 12.45346,-12.45346 6.87793,0 12.45346,5.57553 12.45346,12.45346 z"
       style="fill:none;stroke:#000000;stroke-width:0.3985;stroke-linecap:butt;stroke-linejoin:miter;stroke-miterlimit:10;stroke-dasharray:none;stroke-opacity:1"
       transform="matrix(1.3333333,0,0,-1.3333333,16.870667,54.665333)" />
    <path
       id="path2"
       d="m 5.343625,-3.9953203 c -0.3632812,0.1054687 -0.5390625,0.4453125 -0.5390625,0.6914062 0,0.2109375 0.1640625,0.4570313 0.4921875,0.4570313 0.3515625,0 0.7148438,-0.2929688 0.7148438,-0.7734375 0,-0.5273438 -0.5273438,-0.8789063 -1.125,-0.8789063 -0.5742188,0 -0.9375,0.421875 -1.0664063,0.609375 -0.2578125,-0.421875 -0.8085937,-0.609375 -1.3828125,-0.609375 -1.2539062,0 -1.93359375,1.21875 -1.93359375,1.546875 0,0.140625 0.15234375,0.140625 0.24609375,0.140625 0.1171875,0 0.1875,0 0.22265625,-0.1289062 C 1.2655,-3.8429766 1.9803438,-4.1476641 2.3905,-4.1476641 c 0.375,0 0.5625,0.1875 0.5625,0.5039063 0,0.1875 -0.140625,0.7382812 -0.234375,1.0898437 l -0.3398437,1.3710938 c -0.1523438,0.60937499 -0.5039063,0.90234374 -0.84375,0.90234374 -0.046875,0 -0.28125,0 -0.4804688,-0.15234375 0.3632813,-0.09375 0.5390625,-0.43359375 0.5390625,-0.67968749 0,-0.2226563 -0.1640625,-0.4570313 -0.4921875,-0.4570313 -0.3515625,0 -0.7265625,0.28125 -0.7265625,0.77343754 0,0.52734375 0.52734375,0.87890625 1.1367188,0.87890625 0.5742187,0 0.9375,-0.43359375 1.0664062,-0.609375 0.2460938,0.421875 0.8085938,0.609375 1.3710938,0.609375 1.265625,0 1.9335937,-1.23046879 1.9335937,-1.55859379 0,-0.140625 -0.140625,-0.140625 -0.234375,-0.140625 -0.1171875,0 -0.1875,0 -0.234375,0.1289063 -0.28125,0.91406249 -0.9960937,1.20703124 -1.40625,1.20703124 -0.3867187,0 -0.5625,-0.17578125 -0.5625,-0.4921875 0,-0.2109375 0.1289063,-0.73828124 0.2226563,-1.11328124 0.070312,-0.2578125 0.2929687,-1.1953125 0.3515625,-1.3476563 0.140625,-0.5976562 0.4921875,-0.9140625 0.84375,-0.9140625 0.046875,0 0.28125,0 0.4804687,0.1523438 z m 0,0"
       style="fill:#000000;fill-opacity:1;fill-rule:nonzero;stroke:none"
       aria-label="x"
       transform="matrix(1.3333333,0,0,1.3333333,7.5626667,55.956)" />
    <path
       id="path3"
       d="m 1.7112422,-2.7539922 h 0.7148437 c 0.1289063,0 0.2226563,0 0.2226563,-0.1523437 0,-0.09375 -0.09375,-0.09375 -0.2109375,-0.09375 h -0.65625 l 0.2578125,-1.0429688 c 0,-0.023437 0.023437,-0.058594 0.023437,-0.09375 0,-0.1289062 -0.1054688,-0.2226562 -0.2460938,-0.2226562 -0.1757812,0 -0.28125,0.1171875 -0.328125,0.3046875 -0.046875,0.1757812 0.046875,-0.1640625 -0.2578125,1.0546875 H 0.51592969 c -0.12890625,0 -0.22265625,0 -0.22265625,0.1523437 0,0.09375 0.0820313,0.09375 0.2109375,0.09375 H 1.1604609 l -0.41015621,1.640625 c -0.0351563,0.17578126 -0.10546875,0.43359376 -0.10546875,0.51562501 0,0.421875 0.3515625,0.66796875 0.74999996,0.66796875 0.7734375,0 1.21875,-0.97265625 1.21875,-1.06640625 0,-0.09375 -0.09375,-0.09375 -0.1171875,-0.09375 -0.082031,0 -0.09375,0.011719 -0.140625,0.12890627 -0.1992187,0.4453125 -0.5507812,0.83203125 -0.9375,0.83203125 -0.1523437,0 -0.2460937,-0.0820313 -0.2460937,-0.33984375 0,-0.0703125 0.023437,-0.2109375 0.046875,-0.28125 z m 0,0"
       style="fill:#000000;fill-opacity:1;fill-rule:nonzero;stroke:none"
       aria-label="t"
       transform="matrix(1.3333333,0,0,1.3333333,16.316,57.949333)" />
    <path
       id="path4"
       d="m 2.987375,-1.5937422 c 0,-0.3632812 0,-1.7226562 -1.2890625,-1.7226562 -1.30078125,0 -1.30078125,1.359375 -1.30078125,1.7226562 0,0.3632813 0,1.69921876 1.30078125,1.69921876 1.2890625,0 1.2890625,-1.33593746 1.2890625,-1.69921876 z m -1.2890625,1.53515626 c -0.1875,0 -0.609375,-0.05859375 -0.73828125,-0.5625 -0.0585938,-0.26953125 -0.0703125,-0.62109376 -0.0703125,-1.03124996 0,-0.375 0,-0.7148438 0.0820313,-0.9960938 0.12890635,-0.421875 0.50390635,-0.5039062 0.72656255,-0.5039062 0.3632813,0 0.6210938,0.1875 0.7265625,0.5390625 0.070312,0.2578125 0.070312,0.6679687 0.070312,0.9609375 0,0.3398437 0,0.73828121 -0.070312,1.04296871 -0.1289062,0.48046875 -0.5273437,0.55078125 -0.7265626,0.55078125 z m 0,0"
       style="fill:#000000;fill-opacity:1;fill-rule:nonzero;stroke:none"
       aria-label="0"
       transform="matrix(1.3333333,0,0,1.3333333,20.329333,59.277333)" />
    <path
       id="path5"
       d="m 66.10568,0 c 0,6.87793 -5.57551,12.45346 -12.45346,12.45346 -6.87793,0 -12.45346,-5.57553 -12.45346,-12.45346 0,-6.87793 5.57553,-12.45346 12.45346,-12.45346 6.87795,0 12.45346,5.57553 12.45346,12.45346 z"
       style="fill:none;stroke:#000000;stroke-width:0.3985;stroke-linecap:butt;stroke-linejoin:miter;stroke-miterlimit:10;stroke-dasharray:none;stroke-opacity:1"
       transform="matrix(1.3333333,0,0,-1.3333333,16.870667,54.665333)" />
    <path
       id="path6"
       d="m 5.3439922,-3.9953203 c -0.3632813,0.1054687 -0.5390625,0.4453125 -0.5390625,0.6914062 0,0.2109375 0.1640625,0.4570313 0.4921875,0.4570313 0.3515625,0 0.7148437,-0.2929688 0.7148437,-0.7734375 0,-0.5273438 -0.5273437,-0.8789063 -1.125,-0.8789063 -0.5742187,0 -0.9375,0.421875 -1.0664062,0.609375 -0.2578125,-0.421875 -0.8085938,-0.609375 -1.3828125,-0.609375 -1.2539063,0 -1.93359376,1.21875 -1.93359376,1.546875 0,0.140625 0.15234375,0.140625 0.24609375,0.140625 0.1171875,0 0.1875,0 0.22265625,-0.1289062 0.29296876,-0.9023438 1.00781246,-1.2070313 1.41796876,-1.2070313 0.375,0 0.5625,0.1875 0.5625,0.5039063 0,0.1875 -0.140625,0.7382812 -0.234375,1.0898437 l -0.3398438,1.3710938 c -0.1523437,0.60937499 -0.5039062,0.90234374 -0.84375,0.90234374 -0.046875,0 -0.28125,0 -0.4804687,-0.15234375 0.3632812,-0.09375 0.5390625,-0.43359375 0.5390625,-0.67968749 0,-0.2226563 -0.1640625,-0.4570313 -0.4921875,-0.4570313 -0.35156251,0 -0.72656251,0.28125 -0.72656251,0.77343754 0,0.52734375 0.52734375,0.87890625 1.13671871,0.87890625 0.5742188,0 0.9375,-0.43359375 1.0664063,-0.609375 0.2460937,0.421875 0.8085937,0.609375 1.3710937,0.609375 1.265625,0 1.9335938,-1.23046879 1.9335938,-1.55859379 0,-0.140625 -0.140625,-0.140625 -0.234375,-0.140625 -0.1171875,0 -0.1875,0 -0.234375,0.1289063 -0.28125,0.91406249 -0.9960938,1.20703124 -1.40625,1.20703124 -0.3867188,0 -0.5625,-0.17578125 -0.5625,-0.4921875 0,-0.2109375 0.1289062,-0.73828124 0.2226562,-1.11328124 0.070312,-0.2578125 0.2929688,-1.1953125 0.3515625,-1.3476563 0.140625,-0.5976562 0.4921875,-0.9140625 0.84375,-0.9140625 0.046875,0 0.28125,0 0.4804688,0.1523438 z m 0,0"
       style="fill:#000000;fill-opacity:1;fill-rule:nonzero;stroke:none"
       aria-label="x"
       transform="matrix(1.3333333,0,0,1.3333333,79.097333,55.956)" />
    <path
       id="path7"
       d="m 1.7106094,-2.7539922 h 0.7148437 c 0.1289063,0 0.2226563,0 0.2226563,-0.1523437 0,-0.09375 -0.09375,-0.09375 -0.2109375,-0.09375 h -0.65625 l 0.2578125,-1.0429688 c 0,-0.023437 0.023437,-0.058594 0.023437,-0.09375 0,-0.1289062 -0.1054688,-0.2226562 -0.2460938,-0.2226562 -0.1757812,0 -0.28125,0.1171875 -0.328125,0.3046875 -0.046875,0.1757812 0.046875,-0.1640625 -0.2578125,1.0546875 H 0.51529688 c -0.12890625,0 -0.22265625,0 -0.22265625,0.1523437 0,0.09375 0.0820313,0.09375 0.2109375,0.09375 H 1.1598281 l -0.41015622,1.640625 c -0.0351563,0.17578126 -0.10546875,0.43359376 -0.10546875,0.51562501 0,0.421875 0.3515625,0.66796875 0.74999997,0.66796875 0.7734375,0 1.21875,-0.97265625 1.21875,-1.06640625 0,-0.09375 -0.09375,-0.09375 -0.1171875,-0.09375 -0.082031,0 -0.09375,0.011719 -0.140625,0.12890627 -0.1992187,0.4453125 -0.5507812,0.83203125 -0.9375,0.83203125 -0.1523437,0 -0.2460937,-0.0820313 -0.2460937,-0.33984375 0,-0.0703125 0.023437,-0.2109375 0.046875,-0.28125 z m 0,0"
       style="fill:#000000;fill-opacity:1;fill-rule:nonzero;stroke:none"
       aria-label="t"
       transform="matrix(1.3333333,0,0,1.3333333,87.852,57.949333)" />
    <path
       id="path8"
       d="m 1.9799297,-3.1640547 c 0,-0.1523437 -0.011719,-0.1523437 -0.1757813,-0.1523437 -0.3515625,0.3164062 -0.90234371,0.3164062 -1.00781246,0.3164062 h -0.0820313 v 0.2226563 h 0.0820313 c 0.1171875,0 0.43359376,-0.011719 0.72656246,-0.140625 v 2.48437496 c 0,0.1640625 0,0.2109375 -0.52734371,0.2109375 H 0.74946094 V 7.8125e-6 C 1.0189922,-0.02342969 1.4643047,-0.02342969 1.7572734,-0.02342969 c 0.28125,0 0.7265625,0 0.9960938,0.0234375025 V -0.22264844 H 2.5072734 c -0.5273437,0 -0.5273437,-0.046875 -0.5273437,-0.2109375 z m 0,0"
       style="fill:#000000;fill-opacity:1;fill-rule:nonzero;stroke:none"
       aria-label="1"
       transform="matrix(1.3333333,0,0,1.3333333,91.864,59.277333)" />
    <path
       id="path9"
       d="m 119.75792,0 c 0,6.87793 -5.57552,12.45346 -12.45346,12.45346 C 100.42653,12.45346 94.851,6.87793 94.851,0 c 0,-6.87793 5.57553,-12.45346 12.45346,-12.45346 6.87794,0 12.45346,5.57553 12.45346,12.45346 z"
       style="fill:none;stroke:#000000;stroke-width:0.3985;stroke-linecap:butt;stroke-linejoin:miter;stroke-miterlimit:10;stroke-dasharray:none;stroke-opacity:1"
       transform="matrix(1.3333333,0,0,-1.3333333,16.870667,54.665333)" />
    <path
       id="path10"
       d="m 5.3433594,-3.9953203 c -0.3632813,0.1054687 -0.5390625,0.4453125 -0.5390625,0.6914062 0,0.2109375 0.1640625,0.4570313 0.4921875,0.4570313 0.3515625,0 0.7148437,-0.2929688 0.7148437,-0.7734375 0,-0.5273438 -0.5273437,-0.8789063 -1.125,-0.8789063 -0.5742187,0 -0.9375,0.421875 -1.0664062,0.609375 -0.2578125,-0.421875 -0.8085938,-0.609375 -1.3828125,-0.609375 -1.2539063,0 -1.93359377,1.21875 -1.93359377,1.546875 0,0.140625 0.15234375,0.140625 0.24609375,0.140625 0.1171875,0 0.1875,0 0.22265625,-0.1289062 0.29296877,-0.9023438 1.00781247,-1.2070313 1.41796877,-1.2070313 0.375,0 0.5625,0.1875 0.5625,0.5039063 0,0.1875 -0.140625,0.7382812 -0.234375,1.0898437 l -0.3398438,1.3710938 c -0.1523437,0.60937499 -0.5039062,0.90234374 -0.84375,0.90234374 -0.046875,0 -0.28125,0 -0.4804687,-0.15234375 0.3632812,-0.09375 0.5390625,-0.43359375 0.5390625,-0.67968749 0,-0.2226563 -0.1640625,-0.4570313 -0.4921875,-0.4570313 -0.35156252,0 -0.72656252,0.28125 -0.72656252,0.77343754 0,0.52734375 0.52734375,0.87890625 1.13671872,0.87890625 0.5742188,0 0.9375,-0.43359375 1.0664063,-0.609375 0.2460937,0.421875 0.8085937,0.609375 1.3710937,0.609375 1.265625,0 1.9335938,-1.23046879 1.9335938,-1.55859379 0,-0.140625 -0.140625,-0.140625 -0.234375,-0.140625 -0.1171875,0 -0.1875,0 -0.234375,0.1289063 -0.28125,0.91406249 -0.9960938,1.20703124 -1.40625,1.20703124 -0.3867188,0 -0.5625,-0.17578125 -0.5625,-0.4921875 0,-0.2109375 0.1289062,-0.73828124 0.2226562,-1.11328124 0.070312,-0.2578125 0.2929688,-1.1953125 0.3515625,-1.3476563 0.140625,-0.5976562 0.4921875,-0.9140625 0.84375,-0.9140625 0.046875,0 0.28125,0 0.4804688,0.1523438 z m 0,0"
       style="fill:#000000;fill-opacity:1;fill-rule:nonzero;stroke:none"
       aria-label="x"
       transform="matrix(1.3333333,0,0,1.3333333,150.63333,55.956)" />
    <path
       id="path11"
       d="m 1.7109766,-2.7539922 h 0.7148437 c 0.1289063,0 0.2226563,0 0.2226563,-0.1523437 0,-0.09375 -0.09375,-0.09375 -0.2109375,-0.09375 h -0.65625 l 0.2578125,-1.0429688 c 0,-0.023437 0.023437,-0.058594 0.023437,-0.09375 0,-0.1289062 -0.1054688,-0.2226562 -0.2460938,-0.2226562 -0.1757812,0 -0.28125,0.1171875 -0.328125,0.3046875 -0.046875,0.1757812 0.046875,-0.1640625 -0.2578125,1.0546875 H 0.51566406 c -0.12890625,0 -0.22265625,0 -0.22265625,0.1523437 0,0.09375 0.0820313,0.09375 0.2109375,0.09375 H 1.1601953 l -0.41015624,1.640625 c -0.0351563,0.17578126 -0.10546875,0.43359376 -0.10546875,0.51562501 0,0.421875 0.3515625,0.66796875 0.74999999,0.66796875 0.7734375,0 1.21875,-0.97265625 1.21875,-1.06640625 0,-0.09375 -0.09375,-0.09375 -0.1171875,-0.09375 -0.082031,0 -0.09375,0.011719 -0.140625,0.12890627 -0.1992187,0.4453125 -0.5507812,0.83203125 -0.9375,0.83203125 -0.1523437,0 -0.2460937,-0.0820313 -0.2460937,-0.33984375 0,-0.0703125 0.023437,-0.2109375 0.046875,-0.28125 z m 0,0"
       style="fill:#000000;fill-opacity:1;fill-rule:nonzero;stroke:none"
       aria-label="t"
       transform="matrix(1.3333333,0,0,1.3333333,159.38667,57.949333)" />
    <path
       id="path12"
       d="M 2.9285156,-0.96092969 H 2.7175781 c -0.011719,0.09375 -0.058594,0.3984375 -0.140625,0.45703125 -0.035156,0.0234375 -0.4570312,0.0234375 -0.5273437,0.0234375 h -0.984375 c 0.328125,-0.24609375 0.703125,-0.515625 0.9960937,-0.71484376 0.4570313,-0.3164062 0.8671875,-0.5976562 0.8671875,-1.125 0,-0.6445312 -0.5976562,-0.9960937 -1.3125,-0.9960937 -0.66796872,0 -1.16015622,0.3867187 -1.16015622,0.8789062 0,0.2578125 0.2109375,0.3046875 0.28125,0.3046875 0.140625,0 0.29296872,-0.09375 0.29296872,-0.2929687 0,-0.1875 -0.12890622,-0.28125 -0.28124997,-0.2929688 0.140625,-0.234375 0.43359377,-0.375 0.76171877,-0.375 0.4804687,0 0.890625,0.28125 0.890625,0.7734375 0,0.421875 -0.2929688,0.7382813 -0.6796875,1.0546875 l -1.20703127,1.03125001 c -0.046875,0.046875 -0.0585938,0.046875 -0.0585938,0.0820313 V 7.8125e-6 H 2.7644531 Z m 0,0"
       style="fill:#000000;fill-opacity:1;fill-rule:nonzero;stroke:none"
       aria-label="2"
       transform="matrix(1.3333333,0,0,1.3333333,163.4,59.277333)" />
    <path
       id="path13"
       d="M 14.37263,15.89334 H 39.27955 V 40.80026 H 14.37263 Z"
       style="fill:none;stroke:#000000;stroke-width:0.3985;stroke-linecap:butt;stroke-linejoin:miter;stroke-miterlimit:10;stroke-dasharray:none;stroke-opacity:1"
       transform="matrix(1.3333333,0,0,-1.3333333,16.870667,54.665333)" />
    <path
       id="path14"
       d="m 4.4071719,-6.9506016 c -0.070312,-0.1289062 -0.09375,-0.1875 -0.2578125,-0.1875 -0.1757813,0 -0.1992188,0.058594 -0.2578125,0.1875 l -3.37500002,6.75000004 c -0.046875,0.09375 -0.046875,0.10546875 -0.046875,0.1171875 0,0.08203125 0.0585938,0.08203125 0.22265625,0.08203125 H 7.6063906 c 0.1523438,0 0.2109375,0 0.2109375,-0.08203125 0,-0.01171875 0,-0.0234375 -0.046875,-0.1171875 z m -0.5859375,0.8085938 2.6835937,5.37890624 H 1.1376406 Z m 0,0"
       style="fill:#000000;fill-opacity:1;fill-rule:nonzero;stroke:none"
       aria-label="∆"
       transform="matrix(1.3333333,0,0,1.3333333,41.725333,20.412)" />
    <path
       id="path15"
       d="m 2.0495078,-3.9857578 h 0.9375 c 0.1992188,0 0.3046875,0 0.3046875,-0.1992188 0,-0.1054687 -0.1054687,-0.1054687 -0.28125,-0.1054687 H 2.1315391 c 0.3632812,-1.4179688 0.4101562,-1.6171875 0.4101562,-1.6757813 0,-0.1757812 -0.1171875,-0.2695312 -0.2929687,-0.2695312 -0.023437,0 -0.3046875,0.011719 -0.3984375,0.3515625 l -0.3867188,1.59375 H 0.52607031 c -0.19921875,0 -0.29296875,0 -0.29296875,0.1875 0,0.1171875 0.0703125,0.1171875 0.26953125,0.1171875 H 1.3815391 c -0.71484379,2.8242187 -0.75000004,2.99999999 -0.75000004,3.17578124 0,0.5390625 0.37500004,0.9140625 0.91406254,0.9140625 1.0078125,0 1.5820312,-1.45312504 1.5820312,-1.53515624 0,-0.09375 -0.082031,-0.09375 -0.1171875,-0.09375 -0.09375,0 -0.1054687,0.023437 -0.1523437,0.140625 -0.4335938,1.03124999 -0.9609375,1.27734374 -1.3007813,1.27734374 -0.1992187,0 -0.3046875,-0.12890625 -0.3046875,-0.45703125 0,-0.24609375 0.023437,-0.31640625 0.058594,-0.48046879 z m 0,0"
       style="fill:#000000;fill-opacity:1;fill-rule:nonzero;stroke:none"
       aria-label="t"
       transform="matrix(1.3333333,0,0,1.3333333,52.794667,20.412)" />
    <path
       id="path16"
       d="m 2.3333437,-4.429 c 0,-0.1875 -0.011719,-0.1992188 -0.2109375,-0.1992188 -0.4453125,0.4335938 -1.078125,0.4453125 -1.35937495,0.4453125 v 0.2460938 c 0.1640625,0 0.62109375,0 1.00781245,-0.1875 v 3.55078125 c 0,0.234375 0,0.328125 -0.6914062,0.328125 H 0.80990625 V 6.875e-4 C 0.9388125,-0.01103125 1.7942812,-0.02275 2.0520937,-0.02275 c 0.2109375,0 1.0898438,0.01171875 1.2421875,0.0234375 V -0.24540625 H 3.0364687 c -0.703125,0 -0.703125,-0.09375 -0.703125,-0.328125 z m 0,0"
       style="fill:#000000;fill-opacity:1;fill-rule:nonzero;stroke:none"
       aria-label="1"
       transform="matrix(1.3333333,0,0,1.3333333,57.592,22.405333)" />
    <path
       id="path17"
       d="M 68.02487,15.89334 H 92.93179 V 40.80026 H 68.02487 Z"
       style="fill:none;stroke:#000000;stroke-width:0.3985;stroke-linecap:butt;stroke-linejoin:miter;stroke-miterlimit:10;stroke-dasharray:none;stroke-opacity:1"
       transform="matrix(1.3333333,0,0,-1.3333333,16.870667,54.665333)" />
    <path
       id="path18"
       d="m 4.4075391,-6.9506016 c -0.070312,-0.1289062 -0.09375,-0.1875 -0.2578125,-0.1875 -0.1757813,0 -0.1992188,0.058594 -0.2578125,0.1875 l -3.37500004,6.75000004 c -0.046875,0.09375 -0.046875,0.10546875 -0.046875,0.1171875 0,0.08203125 0.0585937,0.08203125 0.22265625,0.08203125 H 7.6067578 c 0.1523438,0 0.2109375,0 0.2109375,-0.08203125 0,-0.01171875 0,-0.0234375 -0.046875,-0.1171875 z m -0.5859375,0.8085938 2.6835937,5.37890624 H 1.1380078 Z m 0,0"
       style="fill:#000000;fill-opacity:1;fill-rule:nonzero;stroke:none"
       aria-label="∆"
       transform="matrix(1.3333333,0,0,1.3333333,113.26,20.412)" />
    <path
       id="path19"
       d="m 2.049875,-3.9857578 h 0.9375 c 0.1992188,0 0.3046875,0 0.3046875,-0.1992188 0,-0.1054687 -0.1054687,-0.1054687 -0.28125,-0.1054687 H 2.1319063 c 0.3632812,-1.4179688 0.4101562,-1.6171875 0.4101562,-1.6757813 0,-0.1757812 -0.1171875,-0.2695312 -0.2929687,-0.2695312 -0.023437,0 -0.3046876,0.011719 -0.3984376,0.3515625 l -0.3867187,1.59375 h -0.9375 c -0.19921875,0 -0.29296875,0 -0.29296875,0.1875 0,0.1171875 0.0703125,0.1171875 0.26953125,0.1171875 h 0.8789063 c -0.7148438,2.8242187 -0.75000005,2.99999999 -0.75000005,3.17578124 0,0.5390625 0.37500005,0.9140625 0.91406245,0.9140625 1.0078126,0 1.5820313,-1.45312504 1.5820313,-1.53515624 0,-0.09375 -0.082031,-0.09375 -0.1171875,-0.09375 -0.09375,0 -0.1054687,0.023437 -0.1523437,0.140625 -0.4335938,1.03124999 -0.9609376,1.27734374 -1.3007813,1.27734374 -0.1992187,0 -0.3046875,-0.12890625 -0.3046875,-0.45703125 0,-0.24609375 0.023437,-0.31640625 0.058594,-0.48046879 z m 0,0"
       style="fill:#000000;fill-opacity:1;fill-rule:nonzero;stroke:none"
       aria-label="t"
       transform="matrix(1.3333333,0,0,1.3333333,124.32933,20.412)" />
    <path
       id="path20"
       d="M 3.514375,-1.2649375 H 3.28 c -0.023437,0.1523437 -0.082031,0.5625 -0.1757812,0.6328125 -0.058594,0.0351563 -0.5976563,0.0351563 -0.6914063,0.0351563 H 1.12375 C 1.8620313,-1.2415 2.108125,-1.4407188 2.5182813,-1.7688438 c 0.515625,-0.4101562 0.9960937,-0.84375 0.9960937,-1.5 0,-0.84375 -0.7382812,-1.359375 -1.6289062,-1.359375 -0.8671875,0 -1.45312505,0.609375 -1.45312505,1.2421875 0,0.3632813 0.3046875,0.3984375 0.375,0.3984375 0.1640625,0 0.37500005,-0.1171875 0.37500005,-0.375 C 1.1823438,-3.4915 1.12375,-3.725875 0.76046875,-3.725875 0.983125,-4.2297813 1.451875,-4.382125 1.78,-4.382125 c 0.703125,0 1.0664063,0.5507812 1.0664063,1.1132812 0,0.609375 -0.4335938,1.0898438 -0.65625,1.3359375 L 0.50265625,-0.26884375 C 0.43234375,-0.21025 0.43234375,-0.19853125 0.43234375,6.875e-4 H 3.3151563 Z m 0,0"
       style="fill:#000000;fill-opacity:1;fill-rule:nonzero;stroke:none"
       aria-label="2"
       transform="matrix(1.3333333,0,0,1.3333333,129.12667,22.405333)" />
    <path
       id="path21"
       d="m 12.45346,-53.65222 c 0,6.87793 -5.57553,12.45346 -12.45346,12.45346 -6.87793,0 -12.45346,-5.57553 -12.45346,-12.45346 0,-6.87795 5.57553,-12.45346 12.45346,-12.45346 6.87793,0 12.45346,5.57551 12.45346,12.45346 z"
       style="fill:#cccccc;fill-opacity:1;fill-rule:nonzero;stroke:#000000;stroke-width:0.3985;stroke-linecap:butt;stroke-linejoin:miter;stroke-miterlimit:10;stroke-dasharray:none;stroke-opacity:1"
       transform="matrix(1.3333333,0,0,-1.3333333,16.870667,54.665333)" />
    <path
       id="path22"
       d="m 5.6708906,-2.7772031 c 0,-1.0664063 -0.7734375,-1.7226563 -2.0742187,-1.7226563 -2.0742188,0 -3.14062502,1.6054688 -3.14062502,2.859375 0,1.06640628 0.77343752,1.72265628 2.07421872,1.72265628 2.0742188,0 3.140625,-1.60546878 3.140625,-2.85937498 z m -3.1171875,2.49609373 c -0.421875,0 -0.9492187,-0.1640625 -0.9492187,-0.92578123 0,-0.3515625 0.2578125,-1.546875 0.5507812,-2.0742188 0.375,-0.6445312 0.9726563,-0.8671875 1.4179688,-0.8671875 0.421875,0 0.9492187,0.1757813 0.9492187,0.9257813 0,0.3515625 -0.2578125,1.546875 -0.5625,2.0742187 -0.3632812,0.64453128 -0.9609375,0.86718753 -1.40625,0.86718753 z m 0,0"
       style="fill:#000000;fill-opacity:1;fill-rule:nonzero;stroke:none"
       aria-label="o"
       transform="matrix(1.3333333,0,0,1.3333333,8.056,127.492)" />
    <path
       id="path23"
       d="m 1.7121016,-2.753625 h 0.7148437 c 0.1289063,0 0.2226563,0 0.2226563,-0.1523437 0,-0.09375 -0.09375,-0.09375 -0.2109375,-0.09375 h -0.65625 l 0.2578125,-1.0429688 c 0,-0.023437 0.023437,-0.058594 0.023437,-0.09375 0,-0.1289062 -0.1054688,-0.2226562 -0.2460938,-0.2226562 -0.1757812,0 -0.28125,0.1171875 -0.328125,0.3046875 -0.046875,0.1757812 0.046875,-0.1640625 -0.2578125,1.0546875 H 0.51678906 c -0.12890625,0 -0.22265625,0 -0.22265625,0.1523437 0,0.09375 0.0820313,0.09375 0.2109375,0.09375 H 1.1613203 L 0.75116406,-1.113 c -0.0351563,0.17578125 -0.10546875,0.43359375 -0.10546875,0.515625 0,0.421875 0.3515625,0.66796875 0.74999999,0.66796875 0.7734375,0 1.21875,-0.97265625 1.21875,-1.06640625 0,-0.09375 -0.09375,-0.09375 -0.1171875,-0.09375 -0.082031,0 -0.09375,0.011719 -0.140625,0.12890625 -0.1992187,0.4453125 -0.5507812,0.83203125 -0.9375,0.83203125 -0.1523437,0 -0.2460937,-0.0820313 -0.2460937,-0.33984375 0,-0.0703125 0.023437,-0.2109375 0.046875,-0.28125 z m 0,0"
       style="fill:#000000;fill-opacity:1;fill-rule:nonzero;stroke:none"
       aria-label="t"
       transform="matrix(1.3333333,0,0,1.3333333,15.822667,129.484)" />
    <path
       id="path24"
       d="m 2.9882344,-1.594375 c 0,-0.3632812 0,-1.7226562 -1.2890625,-1.7226562 -1.30078127,0 -1.30078127,1.359375 -1.30078127,1.7226562 0,0.3632813 0,1.69921875 1.30078127,1.69921875 1.2890625,0 1.2890625,-1.33593745 1.2890625,-1.69921875 z m -1.2890625,1.53515625 c -0.1875,0 -0.609375,-0.05859375 -0.73828127,-0.5625 C 0.90229688,-0.89125 0.89057813,-1.2428125 0.89057813,-1.6529687 c 0,-0.375 0,-0.7148438 0.0820313,-0.9960938 0.12890617,-0.421875 0.50390627,-0.5039062 0.72656247,-0.5039062 0.3632813,0 0.6210938,0.1875 0.7265626,0.5390625 0.070312,0.2578125 0.070312,0.6679687 0.070312,0.9609375 0,0.3398437 0,0.7382812 -0.070312,1.0429687 -0.1289063,0.48046875 -0.5273438,0.55078125 -0.7265626,0.55078125 z m 0,0"
       style="fill:#000000;fill-opacity:1;fill-rule:nonzero;stroke:none"
       aria-label="0"
       transform="matrix(1.3333333,0,0,1.3333333,19.836,130.81333)" />
    <path
       id="path25"
       d="m 66.10568,-53.65222 c 0,6.87793 -5.57551,12.45346 -12.45346,12.45346 -6.87793,0 -12.45346,-5.57553 -12.45346,-12.45346 0,-6.87795 5.57553,-12.45346 12.45346,-12.45346 6.87795,0 12.45346,5.57551 12.45346,12.45346 z"
       style="fill:#cccccc;fill-opacity:1;fill-rule:nonzero;stroke:#000000;stroke-width:0.3985;stroke-linecap:butt;stroke-linejoin:miter;stroke-miterlimit:10;stroke-dasharray:none;stroke-opacity:1"
       transform="matrix(1.3333333,0,0,-1.3333333,16.870667,54.665333)" />
    <path
       id="path26"
       d="m 5.6712578,-2.7772031 c 0,-1.0664063 -0.7734375,-1.7226563 -2.0742187,-1.7226563 -2.0742188,0 -3.14062504,1.6054688 -3.14062504,2.859375 0,1.06640628 0.77343754,1.72265628 2.07421874,1.72265628 2.0742188,0 3.140625,-1.60546878 3.140625,-2.85937498 z m -3.1171875,2.49609373 c -0.421875,0 -0.9492187,-0.1640625 -0.9492187,-0.92578123 0,-0.3515625 0.2578125,-1.546875 0.5507812,-2.0742188 0.375,-0.6445312 0.9726563,-0.8671875 1.4179688,-0.8671875 0.421875,0 0.9492187,0.1757813 0.9492187,0.9257813 0,0.3515625 -0.2578125,1.546875 -0.5625,2.0742187 -0.3632812,0.64453128 -0.9609375,0.86718753 -1.40625,0.86718753 z m 0,0"
       style="fill:#000000;fill-opacity:1;fill-rule:nonzero;stroke:none"
       aria-label="o"
       transform="matrix(1.3333333,0,0,1.3333333,79.590667,127.492)" />
    <path
       id="path27"
       d="m 1.7114687,-2.753625 h 0.7148438 c 0.1289062,0 0.2226562,0 0.2226562,-0.1523437 0,-0.09375 -0.09375,-0.09375 -0.2109375,-0.09375 h -0.65625 l 0.2578125,-1.0429688 c 0,-0.023437 0.023437,-0.058594 0.023437,-0.09375 0,-0.1289062 -0.1054687,-0.2226562 -0.2460937,-0.2226562 -0.1757813,0 -0.28125,0.1171875 -0.328125,0.3046875 C 1.4419375,-3.878625 1.5356875,-4.2184687 1.231,-2.9997187 H 0.51615625 c -0.12890625,0 -0.22265625,0 -0.22265625,0.1523437 0,0.09375 0.0820313,0.09375 0.2109375,0.09375 h 0.65625 L 0.75053125,-1.113 C 0.715375,-0.93721875 0.6450625,-0.67940625 0.6450625,-0.597375 c 0,0.421875 0.3515625,0.66796875 0.75,0.66796875 0.7734375,0 1.21875,-0.97265625 1.21875,-1.06640625 0,-0.09375 -0.09375,-0.09375 -0.1171875,-0.09375 -0.082031,0 -0.09375,0.011719 -0.140625,0.12890625 -0.1992188,0.4453125 -0.5507813,0.83203125 -0.9375,0.83203125 -0.1523438,0 -0.2460938,-0.0820313 -0.2460938,-0.33984375 0,-0.0703125 0.023437,-0.2109375 0.046875,-0.28125 z m 0,0"
       style="fill:#000000;fill-opacity:1;fill-rule:nonzero;stroke:none"
       aria-label="t"
       transform="matrix(1.3333333,0,0,1.3333333,87.358667,129.484)" />
    <path
       id="path28"
       d="m 1.9807891,-3.1646875 c 0,-0.1523437 -0.011719,-0.1523437 -0.1757813,-0.1523437 C 1.4534453,-3.000625 0.90266406,-3.000625 0.79719531,-3.000625 h -0.0820313 v 0.2226563 h 0.0820313 c 0.1171875,0 0.43359379,-0.011719 0.72656249,-0.140625 v 2.48437495 c 0,0.1640625 0,0.2109375 -0.52734374,0.2109375 H 0.75032031 V -6.25e-4 C 1.0198516,-0.0240625 1.4651641,-0.0240625 1.7581328,-0.0240625 c 0.28125,0 0.7265625,0 0.9960938,0.0234375 V -0.22328125 H 2.5081328 c -0.5273437,0 -0.5273437,-0.046875 -0.5273437,-0.2109375 z m 0,0"
       style="fill:#000000;fill-opacity:1;fill-rule:nonzero;stroke:none"
       aria-label="1"
       transform="matrix(1.3333333,0,0,1.3333333,91.370667,130.81333)" />
    <path
       id="path29"
       d="m 119.75792,-53.65222 c 0,6.87793 -5.57552,12.45346 -12.45346,12.45346 -6.87793,0 -12.45346,-5.57553 -12.45346,-12.45346 0,-6.87795 5.57553,-12.45346 12.45346,-12.45346 6.87794,0 12.45346,5.57551 12.45346,12.45346 z"
       style="fill:#cccccc;fill-opacity:1;fill-rule:nonzero;stroke:#000000;stroke-width:0.3985;stroke-linecap:butt;stroke-linejoin:miter;stroke-miterlimit:10;stroke-dasharray:none;stroke-opacity:1"
       transform="matrix(1.3333333,0,0,-1.3333333,16.870667,54.665333)" />
    <path
       id="path30"
       d="m 5.670625,-2.7772031 c 0,-1.0664063 -0.7734375,-1.7226563 -2.0742187,-1.7226563 -2.0742188,0 -3.14062505,1.6054688 -3.14062505,2.859375 0,1.06640628 0.77343755,1.72265628 2.07421875,1.72265628 2.0742188,0 3.140625,-1.60546878 3.140625,-2.85937498 z m -3.1171875,2.49609373 c -0.421875,0 -0.9492187,-0.1640625 -0.9492187,-0.92578123 0,-0.3515625 0.2578125,-1.546875 0.5507812,-2.0742188 0.375,-0.6445312 0.9726563,-0.8671875 1.4179688,-0.8671875 0.421875,0 0.9492187,0.1757813 0.9492187,0.9257813 0,0.3515625 -0.2578125,1.546875 -0.5625,2.0742187 -0.3632812,0.64453128 -0.9609375,0.86718753 -1.40625,0.86718753 z m 0,0"
       style="fill:#000000;fill-opacity:1;fill-rule:nonzero;stroke:none"
       aria-label="o"
       transform="matrix(1.3333333,0,0,1.3333333,151.12667,127.492)" />
    <path
       id="path31"
       d="m 1.7118359,-2.753625 h 0.7148438 c 0.1289062,0 0.2226562,0 0.2226562,-0.1523437 0,-0.09375 -0.09375,-0.09375 -0.2109375,-0.09375 h -0.65625 l 0.2578125,-1.0429688 c 0,-0.023437 0.023437,-0.058594 0.023437,-0.09375 0,-0.1289062 -0.1054687,-0.2226562 -0.2460937,-0.2226562 -0.1757813,0 -0.28125,0.1171875 -0.328125,0.3046875 -0.046875,0.1757812 0.046875,-0.1640625 -0.2578125,1.0546875 H 0.51652344 c -0.12890625,0 -0.22265625,0 -0.22265625,0.1523437 0,0.09375 0.0820313,0.09375 0.2109375,0.09375 H 1.1610547 L 0.75089844,-1.113 c -0.0351563,0.17578125 -0.10546875,0.43359375 -0.10546875,0.515625 0,0.421875 0.3515625,0.66796875 0.75000001,0.66796875 0.7734375,0 1.21875,-0.97265625 1.21875,-1.06640625 0,-0.09375 -0.09375,-0.09375 -0.1171875,-0.09375 -0.082031,0 -0.09375,0.011719 -0.140625,0.12890625 -0.1992188,0.4453125 -0.5507813,0.83203125 -0.9375,0.83203125 -0.1523438,0 -0.2460938,-0.0820313 -0.2460938,-0.33984375 0,-0.0703125 0.023437,-0.2109375 0.046875,-0.28125 z m 0,0"
       style="fill:#000000;fill-opacity:1;fill-rule:nonzero;stroke:none"
       aria-label="t"
       transform="matrix(1.3333333,0,0,1.3333333,158.89333,129.484)" />
    <path
       id="path32"
       d="M 2.929375,-0.9615625 H 2.7184375 c -0.011719,0.09375 -0.058594,0.3984375 -0.140625,0.45703125 -0.035156,0.0234375 -0.4570312,0.0234375 -0.5273437,0.0234375 h -0.984375 c 0.328125,-0.24609375 0.703125,-0.515625 0.9960937,-0.71484375 0.4570313,-0.3164062 0.8671875,-0.5976562 0.8671875,-1.125 0,-0.6445312 -0.5976562,-0.9960937 -1.3125,-0.9960937 -0.66796875,0 -1.16015625,0.3867187 -1.16015625,0.8789062 0,0.2578125 0.2109375,0.3046875 0.28125,0.3046875 0.140625,0 0.29296875,-0.09375 0.29296875,-0.2929687 0,-0.1875 -0.12890625,-0.28125 -0.28125,-0.2929688 0.140625,-0.234375 0.4335938,-0.375 0.7617188,-0.375 0.4804687,0 0.890625,0.28125 0.890625,0.7734375 0,0.421875 -0.2929688,0.7382813 -0.6796875,1.0546875 L 0.5153125,-0.235 c -0.046875,0.046875 -0.0585937,0.046875 -0.0585937,0.0820313 V -6.25e-4 h 2.3085937 z m 0,0"
       style="fill:#000000;fill-opacity:1;fill-rule:nonzero;stroke:none"
       aria-label="2"
       transform="matrix(1.3333333,0,0,1.3333333,162.90667,130.81333)" />
    <path
       id="path33"
       d="M 12.65271,0 H 36.11777"
       style="fill:none;stroke:#000000;stroke-width:0.3985;stroke-linecap:butt;stroke-linejoin:miter;stroke-miterlimit:10;stroke-dasharray:none;stroke-opacity:1"
       transform="matrix(1.3333333,0,0,-1.3333333,16.870667,54.665333)" />
    <path
       id="path34"
       d="M 4.41391,0 0.19925,1.6317 V 0 -1.6317 Z"
       style="fill:#000000;fill-opacity:1;fill-rule:nonzero;stroke:#000000;stroke-width:0.3985;stroke-linecap:butt;stroke-linejoin:miter;stroke-miterlimit:10;stroke-dasharray:none;stroke-opacity:1"
       transform="matrix(1.3333333,0,0,-1.3333333,64.89484,54.665333)" />
    <path
       id="path35"
       d="M 66.30495,0 H 89.77"
       style="fill:none;stroke:#000000;stroke-width:0.3985;stroke-linecap:butt;stroke-linejoin:miter;stroke-miterlimit:10;stroke-dasharray:none;stroke-opacity:1"
       transform="matrix(1.3333333,0,0,-1.3333333,16.870667,54.665333)" />
    <path
       id="path36"
       d="M 4.41391,0 0.19925,1.6317 V 0 -1.6317 Z"
       style="fill:#000000;fill-opacity:1;fill-rule:nonzero;stroke:#000000;stroke-width:0.3985;stroke-linecap:butt;stroke-linejoin:miter;stroke-miterlimit:10;stroke-dasharray:none;stroke-opacity:1"
       transform="matrix(1.3333333,0,0,-1.3333333,136.43115,54.665333)" />
    <path
       id="path37"
       d="m 38.79922,15.69409 2.80086,-2.95926"
       style="fill:none;stroke:#000000;stroke-width:0.3985;stroke-linecap:butt;stroke-linejoin:miter;stroke-miterlimit:10;stroke-dasharray:none;stroke-opacity:1"
       transform="matrix(1.3333333,0,0,-1.3333333,16.870667,54.665333)" />
    <path
       id="path38"
       d="M 4.41391,0 0.19925,1.6317 V 0 -1.6317 Z"
       style="fill:#000000;fill-opacity:1;fill-rule:nonzero;stroke:#000000;stroke-width:0.3985;stroke-linecap:butt;stroke-linejoin:miter;stroke-miterlimit:10;stroke-dasharray:none;stroke-opacity:1"
       transform="matrix(0.91648,0.96832,0.96832,-0.91648,72.246133,37.58908)" />
    <path
       id="path39"
       d="m 92.45146,15.69409 2.80086,-2.95926"
       style="fill:none;stroke:#000000;stroke-width:0.3985;stroke-linecap:butt;stroke-linejoin:miter;stroke-miterlimit:10;stroke-dasharray:none;stroke-opacity:1"
       transform="matrix(1.3333333,0,0,-1.3333333,16.870667,54.665333)" />
    <path
       id="path40"
       d="M 4.41391,0 0.19925,1.6317 V 0 -1.6317 Z"
       style="fill:#000000;fill-opacity:1;fill-rule:nonzero;stroke:#000000;stroke-width:0.3985;stroke-linecap:butt;stroke-linejoin:miter;stroke-miterlimit:10;stroke-dasharray:none;stroke-opacity:1"
       transform="matrix(0.91648,0.96832,0.96832,-0.91648,143.78245,37.58908)" />
    <path
       id="path41"
       d="M 0,-12.65271 V -36.11777"
       style="fill:none;stroke:#000000;stroke-width:0.3985;stroke-linecap:butt;stroke-linejoin:miter;stroke-miterlimit:10;stroke-dasharray:none;stroke-opacity:1"
       transform="matrix(1.3333333,0,0,-1.3333333,16.870667,54.665333)" />
    <path
       id="path42"
       d="M 4.41391,0 0.19925,1.6317 V 0 -1.6317 Z"
       style="fill:#000000;fill-opacity:1;fill-rule:nonzero;stroke:#000000;stroke-width:0.3985;stroke-linecap:butt;stroke-linejoin:miter;stroke-miterlimit:10;stroke-dasharray:none;stroke-opacity:1"
       transform="matrix(0,1.3333333,1.3333333,0,16.870667,102.68951)" />
    <path
       id="path43"
       d="M 53.65222,-12.65271 V -36.11777"
       style="fill:none;stroke:#000000;stroke-width:0.3985;stroke-linecap:butt;stroke-linejoin:miter;stroke-miterlimit:10;stroke-dasharray:none;stroke-opacity:1"
       transform="matrix(1.3333333,0,0,-1.3333333,16.870667,54.665333)" />
    <path
       id="path44"
       d="M 4.41391,0 0.19925,1.6317 V 0 -1.6317 Z"
       style="fill:#000000;fill-opacity:1;fill-rule:nonzero;stroke:#000000;stroke-width:0.3985;stroke-linecap:butt;stroke-linejoin:miter;stroke-miterlimit:10;stroke-dasharray:none;stroke-opacity:1"
       transform="matrix(0,1.3333333,1.3333333,0,88.40696,102.68951)" />
    <path
       id="path45"
       d="M 107.30446,-12.65271 V -36.11777"
       style="fill:none;stroke:#000000;stroke-width:0.3985;stroke-linecap:butt;stroke-linejoin:miter;stroke-miterlimit:10;stroke-dasharray:none;stroke-opacity:1"
       transform="matrix(1.3333333,0,0,-1.3333333,16.870667,54.665333)" />
    <path
       id="path46"
       d="M 4.41391,0 0.19925,1.6317 V 0 -1.6317 Z"
       style="fill:#000000;fill-opacity:1;fill-rule:nonzero;stroke:#000000;stroke-width:0.3985;stroke-linecap:butt;stroke-linejoin:miter;stroke-miterlimit:10;stroke-dasharray:none;stroke-opacity:1"
       transform="matrix(0,1.3333333,1.3333333,0,159.94328,102.68951)" />
    <path
       id="path47"
       d="m -5.34712,-42.18513 c -5.06262,10.85675 -5.06262,19.86129 -2.06307,26.29373"
       style="fill:none;stroke:#000000;stroke-width:0.3985;stroke-linecap:butt;stroke-linejoin:miter;stroke-miterlimit:10;stroke-dasharray:2.98883, 2.98883;stroke-dashoffset:0;stroke-opacity:1"
       transform="matrix(1.3333333,0,0,-1.3333333,16.870667,54.665333)" />
    <path
       id="path48"
       d="M 4.41391,0 0.19925,1.6317 V 0 -1.6317 Z"
       style="fill:#000000;fill-opacity:1;fill-rule:nonzero;stroke:#000000;stroke-width:0.3985;stroke-linecap:butt;stroke-linejoin:miter;stroke-miterlimit:10;stroke-dasharray:none;stroke-opacity:1"
       transform="matrix(0.56346667,-1.2084,-1.2084,-0.56346667,6.93428,75.974253)" />
    <path
       id="path49"
       d="M 8.94681,-44.70541 41.2535,-12.39873"
       style="fill:none;stroke:#000000;stroke-width:0.3985;stroke-linecap:butt;stroke-linejoin:miter;stroke-miterlimit:10;stroke-dasharray:2.98883, 2.98883;stroke-dashoffset:0;stroke-opacity:1"
       transform="matrix(1.3333333,0,0,-1.3333333,16.870667,54.665333)" />
    <path
       id="path50"
       d="M 4.41391,0 0.19925,1.6317 V 0 -1.6317 Z"
       style="fill:#000000;fill-opacity:1;fill-rule:nonzero;stroke:#000000;stroke-width:0.3985;stroke-linecap:butt;stroke-linejoin:miter;stroke-miterlimit:10;stroke-dasharray:none;stroke-opacity:1"
       transform="matrix(0.9428,-0.9428,-0.9428,-0.9428,71.781373,71.290933)" />
    <path
       id="path51"
       d="M 11.3161,-47.99426 91.6223,-7.84094"
       style="fill:none;stroke:#000000;stroke-width:0.3985;stroke-linecap:butt;stroke-linejoin:miter;stroke-miterlimit:10;stroke-dasharray:2.98883, 2.98883;stroke-dashoffset:0;stroke-opacity:1"
       transform="matrix(1.3333333,0,0,-1.3333333,16.870667,54.665333)" />
    <path
       id="path52"
       d="M 4.41391,0 0.19925,1.6317 V 0 -1.6317 Z"
       style="fill:#000000;fill-opacity:1;fill-rule:nonzero;stroke:#000000;stroke-width:0.3985;stroke-linecap:butt;stroke-linejoin:miter;stroke-miterlimit:10;stroke-dasharray:none;stroke-opacity:1"
       transform="matrix(1.19248,-0.59622667,-0.59622667,-1.19248,138.91492,65.179333)" />
    <path
       id="path53"
       d="m 48.3051,-42.18513 c -5.06262,10.85675 -5.06262,19.86129 -2.06307,26.29373"
       style="fill:none;stroke:#000000;stroke-width:0.3985;stroke-linecap:butt;stroke-linejoin:miter;stroke-miterlimit:10;stroke-dasharray:2.98883, 2.98883;stroke-dashoffset:0;stroke-opacity:1"
       transform="matrix(1.3333333,0,0,-1.3333333,16.870667,54.665333)" />
    <path
       id="path54"
       d="M 4.41391,0 0.19925,1.6317 V 0 -1.6317 Z"
       style="fill:#000000;fill-opacity:1;fill-rule:nonzero;stroke:#000000;stroke-width:0.3985;stroke-linecap:butt;stroke-linejoin:miter;stroke-miterlimit:10;stroke-dasharray:none;stroke-opacity:1"
       transform="matrix(0.56346667,-1.2084,-1.2084,-0.56346667,78.470587,75.974253)" />
    <path
       id="path55"
       d="m 62.59904,-44.70541 32.30669,32.30668"
       style="fill:none;stroke:#000000;stroke-width:0.3985;stroke-linecap:butt;stroke-linejoin:miter;stroke-miterlimit:10;stroke-dasharray:2.98883, 2.98883;stroke-dashoffset:0;stroke-opacity:1"
       transform="matrix(1.3333333,0,0,-1.3333333,16.870667,54.665333)" />
    <path
       id="path56"
       d="M 4.41391,0 0.19925,1.6317 V 0 -1.6317 Z"
       style="fill:#000000;fill-opacity:1;fill-rule:nonzero;stroke:#000000;stroke-width:0.3985;stroke-linecap:butt;stroke-linejoin:miter;stroke-miterlimit:10;stroke-dasharray:none;stroke-opacity:1"
       transform="matrix(0.9428,-0.9428,-0.9428,-0.9428,143.31769,71.290933)" />
    <path
       id="path57"
       d="m 101.95734,-42.18513 c -5.06263,10.85675 -5.06263,19.86129 -2.06307,26.29373"
       style="fill:none;stroke:#000000;stroke-width:0.3985;stroke-linecap:butt;stroke-linejoin:miter;stroke-miterlimit:10;stroke-dasharray:2.98883, 2.98883;stroke-dashoffset:0;stroke-opacity:1"
       transform="matrix(1.3333333,0,0,-1.3333333,16.870667,54.665333)" />
    <path
       id="path58"
       d="M 4.41391,0 0.19925,1.6317 V 0 -1.6317 Z"
       style="fill:#000000;fill-opacity:1;fill-rule:nonzero;stroke:#000000;stroke-width:0.3985;stroke-linecap:butt;stroke-linejoin:miter;stroke-miterlimit:10;stroke-dasharray:none;stroke-opacity:1"
       transform="matrix(0.56346667,-1.2084,-1.2084,-0.56346667,150.00689,75.974253)" />
  </g>
</svg>
