<?xml version="1.0" encoding="UTF-8" standalone="no"?>
<!-- Created with Inkscape (http://www.inkscape.org/) -->

<svg
   version="1.1"
   id="svg1"
   width="181.23466"
   height="105.276"
   viewBox="0 0 181.23466 105.276"
   sodipodi:docname="tmp_vssm.pdf"
   xmlns:inkscape="http://www.inkscape.org/namespaces/inkscape"
   xmlns:sodipodi="http://sodipodi.sourceforge.net/DTD/sodipodi-0.dtd"
   xmlns="http://www.w3.org/2000/svg"
   xmlns:svg="http://www.w3.org/2000/svg">
  <defs
     id="defs1" />
  <sodipodi:namedview
     id="namedview1"
     pagecolor="#ffffff"
     bordercolor="#000000"
     borderopacity="0.25"
     inkscape:showpageshadow="2"
     inkscape:pageopacity="0.0"
     inkscape:pagecheckerboard="0"
     inkscape:deskcolor="#d1d1d1">
    <inkscape:page
       x="0"
       y="0"
       inkscape:label="1"
       id="page1"
       width="181.23466"
       height="105.276"
       margin="0"
       bleed="0" />
  </sodipodi:namedview>
  <g
     id="g1"
     inkscape:groupmode="layer"
     inkscape:label="1">
    <path
       id="path1"
       d="M 12.45346,0 C 12.45346,6.87793 6.87793,12.45346 0,12.45346 -6.87793,12.45346 -12.45346,6.87793 -12.45346,0 c 0,-6.87793 5.57553,-12.45346 12.45346,-12.45346 6.87793,0 12.45346,5.57553 12.45346,12.45346 z"
       style="fill:none;stroke:#000000;stroke-width:0.3985;stroke-linecap:butt;stroke-linejoin:miter;stroke-miterlimit:10;stroke-dasharray:none;stroke-opacity:1"
       transform="matrix(1.3333333,0,0,-1.3333333,16.870667,16.870667)" />
    <path
       id="path2"
       d="m 5.3425391,-3.995 c -0.3632813,0.1054687 -0.5390625,0.4453125 -0.5390625,0.6914062 0,0.2109375 0.1640625,0.4570313 0.4921875,0.4570313 0.3515625,0 0.7148437,-0.2929688 0.7148437,-0.7734375 0,-0.5273438 -0.5273437,-0.8789063 -1.125,-0.8789063 -0.5742187,0 -0.9375,0.421875 -1.0664062,0.609375 -0.2578125,-0.421875 -0.8085938,-0.609375 -1.3828125,-0.609375 -1.2539063,0 -1.93359379,1.21875 -1.93359379,1.546875 0,0.140625 0.15234375,0.140625 0.24609375,0.140625 0.1171875,0 0.1875,0 0.22265625,-0.1289062 0.29296879,-0.9023438 1.00781249,-1.2070313 1.41796879,-1.2070313 0.375,0 0.5625,0.1875 0.5625,0.5039063 0,0.1875 -0.140625,0.7382812 -0.234375,1.0898437 L 2.3776953,-1.1825 c -0.1523437,0.609375 -0.5039062,0.90234375 -0.84375,0.90234375 -0.046875,0 -0.28125,0 -0.4804687,-0.15234375 0.3632812,-0.09375 0.5390625,-0.43359375 0.5390625,-0.6796875 0,-0.2226563 -0.1640625,-0.4570313 -0.4921875,-0.4570313 -0.35156254,0 -0.72656254,0.28125 -0.72656254,0.77343755 0,0.52734375 0.52734375,0.87890625 1.13671874,0.87890625 0.5742188,0 0.9375,-0.43359375 1.0664063,-0.609375 0.2460937,0.421875 0.8085937,0.609375 1.3710937,0.609375 1.265625,0 1.9335938,-1.2304688 1.9335938,-1.5585938 0,-0.140625 -0.140625,-0.140625 -0.234375,-0.140625 -0.1171875,0 -0.1875,0 -0.234375,0.1289063 -0.28125,0.9140625 -0.9960938,1.20703125 -1.40625,1.20703125 -0.3867188,0 -0.5625,-0.17578125 -0.5625,-0.4921875 0,-0.2109375 0.1289062,-0.73828125 0.2226562,-1.11328125 0.070312,-0.2578125 0.2929688,-1.1953125 0.3515625,-1.3476563 0.140625,-0.5976562 0.4921875,-0.9140625 0.84375,-0.9140625 0.046875,0 0.28125,0 0.4804688,0.1523438 z m 0,0"
       style="fill:#000000;fill-opacity:1;fill-rule:nonzero;stroke:none"
       aria-label="x"
       transform="matrix(1.3333333,0,0,1.3333333,9.5133333,18.826667)" />
    <path
       id="path3"
       d="m 3.5988047,-2.2253281 c 0,-0.7617188 -0.09375,-1.3125 -0.4101563,-1.8046875 -0.2226562,-0.3164063 -0.6445312,-0.5976563 -1.2070312,-0.5976563 -1.61718751,0 -1.61718751,1.8984375 -1.61718751,2.4023438 0,0.5039062 0,2.36718747 1.61718751,2.36718747 1.6171875,0 1.6171875,-1.86328127 1.6171875,-2.36718747 z m -1.6171875,2.16796872 c -0.3164063,0 -0.75,-0.1875 -0.890625,-0.76171875 -0.09375,-0.41015627 -0.09375,-0.98437497 -0.09375,-1.49999997 0,-0.5039063 0,-1.03125 0.1054687,-1.4179688 0.1523438,-0.5507812 0.5976563,-0.6914062 0.8789063,-0.6914062 0.375,0 0.7382812,0.2226562 0.8671875,0.6328125 0.1054687,0.375 0.1171875,0.8789062 0.1171875,1.4765625 0,0.515625 0,1.0429687 -0.09375,1.47656247 -0.140625,0.6328125 -0.609375,0.78515625 -0.890625,0.78515625 z m 0,0"
       style="fill:#000000;fill-opacity:1;fill-rule:nonzero;stroke:none"
       aria-label="0"
       transform="matrix(1.3333333,0,0,1.3333333,18.268,20.818667)" />
    <path
       id="path4"
       d="m 66.10568,0 c 0,6.87793 -5.57551,12.45346 -12.45346,12.45346 -6.87793,0 -12.45346,-5.57553 -12.45346,-12.45346 0,-6.87793 5.57553,-12.45346 12.45346,-12.45346 6.87795,0 12.45346,5.57553 12.45346,12.45346 z"
       style="fill:none;stroke:#000000;stroke-width:0.3985;stroke-linecap:butt;stroke-linejoin:miter;stroke-miterlimit:10;stroke-dasharray:none;stroke-opacity:1"
       transform="matrix(1.3333333,0,0,-1.3333333,16.870667,16.870667)" />
    <path
       id="path5"
       d="m 5.3448359,-3.995 c -0.3632812,0.1054687 -0.5390625,0.4453125 -0.5390625,0.6914062 0,0.2109375 0.1640625,0.4570313 0.4921875,0.4570313 0.3515625,0 0.7148438,-0.2929688 0.7148438,-0.7734375 0,-0.5273438 -0.5273438,-0.8789063 -1.125,-0.8789063 -0.5742188,0 -0.9375,0.421875 -1.0664063,0.609375 -0.2578125,-0.421875 -0.8085937,-0.609375 -1.3828125,-0.609375 -1.2539062,0 -1.93359371,1.21875 -1.93359371,1.546875 0,0.140625 0.15234375,0.140625 0.24609375,0.140625 0.1171875,0 0.1875,0 0.22265625,-0.1289062 0.29296871,-0.9023438 1.00781251,-1.2070313 1.41796871,-1.2070313 0.375,0 0.5625,0.1875 0.5625,0.5039063 0,0.1875 -0.140625,0.7382812 -0.234375,1.0898437 L 2.3799922,-1.1825 c -0.1523438,0.609375 -0.5039063,0.90234375 -0.84375,0.90234375 -0.046875,0 -0.28125,0 -0.4804688,-0.15234375 0.3632813,-0.09375 0.5390625,-0.43359375 0.5390625,-0.6796875 0,-0.2226563 -0.1640625,-0.4570313 -0.4921875,-0.4570313 -0.35156246,0 -0.72656246,0.28125 -0.72656246,0.77343755 0,0.52734375 0.52734375,0.87890625 1.13671876,0.87890625 0.5742187,0 0.9375,-0.43359375 1.0664062,-0.609375 0.2460938,0.421875 0.8085938,0.609375 1.3710938,0.609375 1.265625,0 1.9335937,-1.2304688 1.9335937,-1.5585938 0,-0.140625 -0.140625,-0.140625 -0.234375,-0.140625 -0.1171875,0 -0.1875,0 -0.234375,0.1289063 -0.28125,0.9140625 -0.9960937,1.20703125 -1.40625,1.20703125 -0.3867187,0 -0.5625,-0.17578125 -0.5625,-0.4921875 0,-0.2109375 0.1289063,-0.73828125 0.2226563,-1.11328125 0.070312,-0.2578125 0.2929687,-1.1953125 0.3515625,-1.3476563 0.140625,-0.5976562 0.4921875,-0.9140625 0.84375,-0.9140625 0.046875,0 0.28125,0 0.4804687,0.1523438 z m 0,0"
       style="fill:#000000;fill-opacity:1;fill-rule:nonzero;stroke:none"
       aria-label="x"
       transform="matrix(1.3333333,0,0,1.3333333,81.049333,18.826667)" />
    <path
       id="path6"
       d="m 2.3306172,-4.4284531 c 0,-0.1875 -0.011719,-0.1992188 -0.2109375,-0.1992188 -0.4453125,0.4335938 -1.078125,0.4453125 -1.35937501,0.4453125 v 0.2460938 c 0.1640625,0 0.62109371,0 1.00781251,-0.1875 v 3.55078122 c 0,0.234375 0,0.328125 -0.6914063,0.328125 H 0.80717969 v 0.24609375 c 0.12890625,-0.01171875 0.98437501,-0.0234375 1.24218751,-0.0234375 0.2109375,0 1.0898437,0.01171875 1.2421875,0.0234375 V -0.24485938 H 3.0337422 c -0.703125,0 -0.703125,-0.09375 -0.703125,-0.328125 z m 0,0"
       style="fill:#000000;fill-opacity:1;fill-rule:nonzero;stroke:none"
       aria-label="1"
       transform="matrix(1.3333333,0,0,1.3333333,89.802667,20.818667)" />
    <path
       id="path7"
       d="m 119.75792,0 c 0,6.87793 -5.57552,12.45346 -12.45346,12.45346 C 100.42653,12.45346 94.851,6.87793 94.851,0 c 0,-6.87793 5.57553,-12.45346 12.45346,-12.45346 6.87794,0 12.45346,5.57553 12.45346,12.45346 z"
       style="fill:none;stroke:#000000;stroke-width:0.3985;stroke-linecap:butt;stroke-linejoin:miter;stroke-miterlimit:10;stroke-dasharray:none;stroke-opacity:1"
       transform="matrix(1.3333333,0,0,-1.3333333,16.870667,16.870667)" />
    <path
       id="path8"
       d="m 5.3452031,-3.995 c -0.3632812,0.1054687 -0.5390625,0.4453125 -0.5390625,0.6914062 0,0.2109375 0.1640625,0.4570313 0.4921875,0.4570313 0.3515625,0 0.7148438,-0.2929688 0.7148438,-0.7734375 0,-0.5273438 -0.5273438,-0.8789063 -1.125,-0.8789063 -0.5742188,0 -0.9375,0.421875 -1.0664063,0.609375 -0.2578125,-0.421875 -0.8085937,-0.609375 -1.3828125,-0.609375 -1.2539062,0 -1.93359372,1.21875 -1.93359372,1.546875 0,0.140625 0.15234375,0.140625 0.24609375,0.140625 0.1171875,0 0.1875,0 0.22265625,-0.1289062 0.29296872,-0.9023438 1.00781252,-1.2070313 1.41796872,-1.2070313 0.375,0 0.5625,0.1875 0.5625,0.5039063 0,0.1875 -0.140625,0.7382812 -0.234375,1.0898437 L 2.3803594,-1.1825 c -0.1523438,0.609375 -0.5039063,0.90234375 -0.84375,0.90234375 -0.046875,0 -0.28125,0 -0.4804688,-0.15234375 0.3632813,-0.09375 0.5390625,-0.43359375 0.5390625,-0.6796875 0,-0.2226563 -0.1640625,-0.4570313 -0.4921875,-0.4570313 -0.35156247,0 -0.72656247,0.28125 -0.72656247,0.77343755 0,0.52734375 0.52734375,0.87890625 1.13671877,0.87890625 0.5742187,0 0.9375,-0.43359375 1.0664062,-0.609375 0.2460938,0.421875 0.8085938,0.609375 1.3710938,0.609375 1.265625,0 1.9335937,-1.2304688 1.9335937,-1.5585938 0,-0.140625 -0.140625,-0.140625 -0.234375,-0.140625 -0.1171875,0 -0.1875,0 -0.234375,0.1289063 -0.28125,0.9140625 -0.9960937,1.20703125 -1.40625,1.20703125 -0.3867187,0 -0.5625,-0.17578125 -0.5625,-0.4921875 0,-0.2109375 0.1289063,-0.73828125 0.2226563,-1.11328125 0.070312,-0.2578125 0.2929687,-1.1953125 0.3515625,-1.3476563 0.140625,-0.5976562 0.4921875,-0.9140625 0.84375,-0.9140625 0.046875,0 0.28125,0 0.4804687,0.1523438 z m 0,0"
       style="fill:#000000;fill-opacity:1;fill-rule:nonzero;stroke:none"
       aria-label="x"
       transform="matrix(1.3333333,0,0,1.3333333,152.584,18.826667)" />
    <path
       id="path9"
       d="m 3.5165078,-1.2643906 h -0.234375 c -0.023437,0.1523437 -0.082031,0.56249997 -0.1757812,0.63281247 -0.058594,0.0351563 -0.5976563,0.0351563 -0.6914063,0.0351563 H 1.1258828 C 1.8641641,-1.240953 2.1102578,-1.4401718 2.5204141,-1.7682968 c 0.515625,-0.4101563 0.9960937,-0.8437501 0.9960937,-1.5000001 0,-0.84375 -0.7382812,-1.359375 -1.6289062,-1.359375 -0.8671875,0 -1.45312504,0.609375 -1.45312504,1.2421875 0,0.3632813 0.3046875,0.3984375 0.375,0.3984375 0.1640625,0 0.37500004,-0.1171875 0.37500004,-0.375 0,-0.1289062 -0.058594,-0.3632812 -0.42187504,-0.3632812 0.22265625,-0.5039063 0.69140624,-0.6562499 1.01953124,-0.6562499 0.703125,0 1.0664063,0.5507811 1.0664063,1.1132812 0,0.609375 -0.4335938,1.0898437 -0.65625,1.3359375 l -1.68750004,1.66406247 c -0.0703125,0.0585938 -0.0703125,0.0703125 -0.0703125,0.26953125 H 3.3172891 Z m 0,0"
       style="fill:#000000;fill-opacity:1;fill-rule:nonzero;stroke:none"
       aria-label="2"
       transform="matrix(1.3333333,0,0,1.3333333,161.33867,20.818667)" />
    <path
       id="path10"
       d="m 12.45346,-53.65222 c 0,6.87793 -5.57553,12.45346 -12.45346,12.45346 -6.87793,0 -12.45346,-5.57553 -12.45346,-12.45346 0,-6.87795 5.57553,-12.45346 12.45346,-12.45346 6.87793,0 12.45346,5.57551 12.45346,12.45346 z"
       style="fill:#cccccc;fill-opacity:1;fill-rule:nonzero;stroke:#000000;stroke-width:0.3985;stroke-linecap:butt;stroke-linejoin:miter;stroke-miterlimit:10;stroke-dasharray:none;stroke-opacity:1"
       transform="matrix(1.3333333,0,0,-1.3333333,16.870667,16.870667)" />
    <path
       id="path11"
       d="m 5.6727344,-2.7758828 c 0,-1.0664063 -0.7734375,-1.7226563 -2.0742188,-1.7226563 -2.0742187,0 -3.14062497,1.6054688 -3.14062497,2.859375 0,1.06640629 0.77343747,1.72265629 2.07421877,1.72265629 2.0742187,0 3.140625,-1.60546879 3.140625,-2.85937499 z m -3.1171875,2.49609374 c -0.421875,0 -0.9492188,-0.1640625 -0.9492188,-0.92578124 0,-0.3515625 0.2578125,-1.546875 0.5507813,-2.0742188 0.375,-0.6445312 0.9726562,-0.8671875 1.4179687,-0.8671875 0.421875,0 0.9492188,0.1757813 0.9492188,0.9257813 0,0.3515625 -0.2578125,1.546875 -0.5625,2.0742187 -0.3632813,0.64453129 -0.9609375,0.86718754 -1.40625,0.86718754 z m 0,0"
       style="fill:#000000;fill-opacity:1;fill-rule:nonzero;stroke:none"
       aria-label="o"
       transform="matrix(1.3333333,0,0,1.3333333,10.006667,90.361333)" />
    <path
       id="path12"
       d="m 3.5967344,-2.2259609 c 0,-0.7617188 -0.09375,-1.3125 -0.4101563,-1.8046875 -0.2226562,-0.3164063 -0.6445312,-0.5976563 -1.2070312,-0.5976563 -1.61718752,0 -1.61718752,1.8984375 -1.61718752,2.4023438 0,0.5039062 0,2.36718746 1.61718752,2.36718746 1.6171875,0 1.6171875,-1.86328126 1.6171875,-2.36718746 z m -1.6171875,2.16796871 c -0.3164063,0 -0.75,-0.1875 -0.890625,-0.76171875 -0.09375,-0.41015626 -0.09375,-0.98437496 -0.09375,-1.49999996 0,-0.5039063 0,-1.03125 0.1054687,-1.4179688 0.1523438,-0.5507812 0.5976563,-0.6914062 0.8789063,-0.6914062 0.375,0 0.7382812,0.2226562 0.8671875,0.6328125 0.1054687,0.375 0.1171875,0.8789062 0.1171875,1.4765625 0,0.515625 0,1.0429687 -0.09375,1.47656246 -0.140625,0.6328125 -0.609375,0.78515625 -0.890625,0.78515625 z m 0,0"
       style="fill:#000000;fill-opacity:1;fill-rule:nonzero;stroke:none"
       aria-label="0"
       transform="matrix(1.3333333,0,0,1.3333333,17.774667,92.354667)" />
    <path
       id="path13"
       d="m 66.10568,-53.65222 c 0,6.87793 -5.57551,12.45346 -12.45346,12.45346 -6.87793,0 -12.45346,-5.57553 -12.45346,-12.45346 0,-6.87795 5.57553,-12.45346 12.45346,-12.45346 6.87795,0 12.45346,5.57551 12.45346,12.45346 z"
       style="fill:#cccccc;fill-opacity:1;fill-rule:nonzero;stroke:#000000;stroke-width:0.3985;stroke-linecap:butt;stroke-linejoin:miter;stroke-miterlimit:10;stroke-dasharray:none;stroke-opacity:1"
       transform="matrix(1.3333333,0,0,-1.3333333,16.870667,16.870667)" />
    <path
       id="path14"
       d="m 5.6721016,-2.7758828 c 0,-1.0664063 -0.7734375,-1.7226563 -2.0742188,-1.7226563 -2.0742187,0 -3.14062499,1.6054688 -3.14062499,2.859375 0,1.06640629 0.77343749,1.72265629 2.07421879,1.72265629 2.0742187,0 3.140625,-1.60546879 3.140625,-2.85937499 z m -3.1171875,2.49609374 c -0.421875,0 -0.9492188,-0.1640625 -0.9492188,-0.92578124 0,-0.3515625 0.2578125,-1.546875 0.5507813,-2.0742188 0.375,-0.6445312 0.9726562,-0.8671875 1.4179687,-0.8671875 0.421875,0 0.9492188,0.1757813 0.9492188,0.9257813 0,0.3515625 -0.2578125,1.546875 -0.5625,2.0742187 -0.3632813,0.64453129 -0.9609375,0.86718754 -1.40625,0.86718754 z m 0,0"
       style="fill:#000000;fill-opacity:1;fill-rule:nonzero;stroke:none"
       aria-label="o"
       transform="matrix(1.3333333,0,0,1.3333333,81.542667,90.361333)" />
    <path
       id="path15"
       d="m 2.3314766,-4.4290859 c 0,-0.1875 -0.011719,-0.1992188 -0.2109375,-0.1992188 -0.4453125,0.4335938 -1.078125,0.4453125 -1.35937504,0.4453125 v 0.2460938 c 0.1640625,0 0.62109374,0 1.00781254,-0.1875 v 3.55078121 c 0,0.234375 0,0.328125 -0.6914063,0.328125 H 0.80803906 V 6.015625e-4 C 0.93694531,-0.01111719 1.7924141,-0.02283594 2.0502266,-0.02283594 c 0.2109375,0 1.0898437,0.01171875 1.2421875,0.0234375025 V -0.24549219 H 3.0346016 c -0.703125,0 -0.703125,-0.09375 -0.703125,-0.328125 z m 0,0"
       style="fill:#000000;fill-opacity:1;fill-rule:nonzero;stroke:none"
       aria-label="1"
       transform="matrix(1.3333333,0,0,1.3333333,89.309333,92.354667)" />
    <path
       id="path16"
       d="m 119.75792,-53.65222 c 0,6.87793 -5.57552,12.45346 -12.45346,12.45346 -6.87793,0 -12.45346,-5.57553 -12.45346,-12.45346 0,-6.87795 5.57553,-12.45346 12.45346,-12.45346 6.87794,0 12.45346,5.57551 12.45346,12.45346 z"
       style="fill:#cccccc;fill-opacity:1;fill-rule:nonzero;stroke:#000000;stroke-width:0.3985;stroke-linecap:butt;stroke-linejoin:miter;stroke-miterlimit:10;stroke-dasharray:none;stroke-opacity:1"
       transform="matrix(1.3333333,0,0,-1.3333333,16.870667,16.870667)" />
    <path
       id="path17"
       d="m 5.6724688,-2.7758828 c 0,-1.0664063 -0.7734375,-1.7226563 -2.0742188,-1.7226563 -2.0742187,0 -3.140625,1.6054688 -3.140625,2.859375 0,1.06640629 0.7734375,1.72265629 2.0742188,1.72265629 2.0742187,0 3.140625,-1.60546879 3.140625,-2.85937499 z m -3.1171875,2.49609374 c -0.421875,0 -0.9492188,-0.1640625 -0.9492188,-0.92578124 0,-0.3515625 0.2578125,-1.546875 0.5507813,-2.0742188 0.375,-0.6445312 0.9726562,-0.8671875 1.4179687,-0.8671875 0.421875,0 0.9492188,0.1757813 0.9492188,0.9257813 0,0.3515625 -0.2578125,1.546875 -0.5625,2.0742187 -0.3632813,0.64453129 -0.9609375,0.86718754 -1.40625,0.86718754 z m 0,0"
       style="fill:#000000;fill-opacity:1;fill-rule:nonzero;stroke:none"
       aria-label="o"
       transform="matrix(1.3333333,0,0,1.3333333,153.07733,90.361333)" />
    <path
       id="path18"
       d="m 3.5144375,-1.2650234 h -0.234375 c -0.023437,0.1523437 -0.082031,0.56249996 -0.1757812,0.63281246 -0.058594,0.0351563 -0.5976563,0.0351563 -0.6914063,0.0351563 H 1.1238125 c 0.7382813,-0.64453116 0.984375,-0.84374996 1.3945313,-1.17187496 0.515625,-0.4101563 0.9960937,-0.8437501 0.9960937,-1.5000001 0,-0.84375 -0.7382812,-1.359375 -1.6289062,-1.359375 -0.8671875,0 -1.45312505,0.609375 -1.45312505,1.2421875 0,0.3632813 0.3046875,0.3984375 0.375,0.3984375 0.1640625,0 0.37500005,-0.1171875 0.37500005,-0.375 0,-0.1289062 -0.058594,-0.3632812 -0.42187505,-0.3632812 0.22265625,-0.5039063 0.69140625,-0.6562499 1.01953125,-0.6562499 0.703125,0 1.0664063,0.5507811 1.0664063,1.1132812 0,0.609375 -0.4335938,1.0898437 -0.65625,1.3359375 l -1.68750005,1.66406246 c -0.0703125,0.0585938 -0.0703125,0.0703125 -0.0703125,0.2695312525 H 3.3152188 Z m 0,0"
       style="fill:#000000;fill-opacity:1;fill-rule:nonzero;stroke:none"
       aria-label="2"
       transform="matrix(1.3333333,0,0,1.3333333,160.84533,92.354667)" />
    <path
       id="path19"
       d="M 12.65271,0 H 36.11777"
       style="fill:none;stroke:#000000;stroke-width:0.3985;stroke-linecap:butt;stroke-linejoin:miter;stroke-miterlimit:10;stroke-dasharray:none;stroke-opacity:1"
       transform="matrix(1.3333333,0,0,-1.3333333,16.870667,16.870667)" />
    <path
       id="path20"
       d="M 4.41391,0 0.19925,1.6317 V 0 -1.6317 Z"
       style="fill:#000000;fill-opacity:1;fill-rule:nonzero;stroke:#000000;stroke-width:0.3985;stroke-linecap:butt;stroke-linejoin:miter;stroke-miterlimit:10;stroke-dasharray:none;stroke-opacity:1"
       transform="matrix(1.3333333,0,0,-1.3333333,64.89484,16.870667)" />
    <path
       id="path21"
       d="M 66.30495,0 H 89.77"
       style="fill:none;stroke:#000000;stroke-width:0.3985;stroke-linecap:butt;stroke-linejoin:miter;stroke-miterlimit:10;stroke-dasharray:none;stroke-opacity:1"
       transform="matrix(1.3333333,0,0,-1.3333333,16.870667,16.870667)" />
    <path
       id="path22"
       d="M 4.41391,0 0.19925,1.6317 V 0 -1.6317 Z"
       style="fill:#000000;fill-opacity:1;fill-rule:nonzero;stroke:#000000;stroke-width:0.3985;stroke-linecap:butt;stroke-linejoin:miter;stroke-miterlimit:10;stroke-dasharray:none;stroke-opacity:1"
       transform="matrix(1.3333333,0,0,-1.3333333,136.43115,16.870667)" />
    <path
       id="path23"
       d="M 0,-12.65271 V -36.11777"
       style="fill:none;stroke:#000000;stroke-width:0.3985;stroke-linecap:butt;stroke-linejoin:miter;stroke-miterlimit:10;stroke-dasharray:none;stroke-opacity:1"
       transform="matrix(1.3333333,0,0,-1.3333333,16.870667,16.870667)" />
    <path
       id="path24"
       d="M 4.41391,0 0.19925,1.6317 V 0 -1.6317 Z"
       style="fill:#000000;fill-opacity:1;fill-rule:nonzero;stroke:#000000;stroke-width:0.3985;stroke-linecap:butt;stroke-linejoin:miter;stroke-miterlimit:10;stroke-dasharray:none;stroke-opacity:1"
       transform="matrix(0,1.3333333,1.3333333,0,16.870667,64.89484)" />
    <path
       id="path25"
       d="M 53.65222,-12.65271 V -36.11777"
       style="fill:none;stroke:#000000;stroke-width:0.3985;stroke-linecap:butt;stroke-linejoin:miter;stroke-miterlimit:10;stroke-dasharray:none;stroke-opacity:1"
       transform="matrix(1.3333333,0,0,-1.3333333,16.870667,16.870667)" />
    <path
       id="path26"
       d="M 4.41391,0 0.19925,1.6317 V 0 -1.6317 Z"
       style="fill:#000000;fill-opacity:1;fill-rule:nonzero;stroke:#000000;stroke-width:0.3985;stroke-linecap:butt;stroke-linejoin:miter;stroke-miterlimit:10;stroke-dasharray:none;stroke-opacity:1"
       transform="matrix(0,1.3333333,1.3333333,0,88.40696,64.89484)" />
    <path
       id="path27"
       d="M 107.30446,-12.65271 V -36.11777"
       style="fill:none;stroke:#000000;stroke-width:0.3985;stroke-linecap:butt;stroke-linejoin:miter;stroke-miterlimit:10;stroke-dasharray:none;stroke-opacity:1"
       transform="matrix(1.3333333,0,0,-1.3333333,16.870667,16.870667)" />
    <path
       id="path28"
       d="M 4.41391,0 0.19925,1.6317 V 0 -1.6317 Z"
       style="fill:#000000;fill-opacity:1;fill-rule:nonzero;stroke:#000000;stroke-width:0.3985;stroke-linecap:butt;stroke-linejoin:miter;stroke-miterlimit:10;stroke-dasharray:none;stroke-opacity:1"
       transform="matrix(0,1.3333333,1.3333333,0,159.94328,64.89484)" />
    <path
       id="path29"
       d="m -5.34712,-42.18513 c -5.06262,10.85675 -5.06262,19.86129 -2.06307,26.29373"
       style="fill:none;stroke:#000000;stroke-width:0.3985;stroke-linecap:butt;stroke-linejoin:miter;stroke-miterlimit:10;stroke-dasharray:2.98883, 2.98883;stroke-dashoffset:0;stroke-opacity:1"
       transform="matrix(1.3333333,0,0,-1.3333333,16.870667,16.870667)" />
    <path
       id="path30"
       d="M 4.41391,0 0.19925,1.6317 V 0 -1.6317 Z"
       style="fill:#000000;fill-opacity:1;fill-rule:nonzero;stroke:#000000;stroke-width:0.3985;stroke-linecap:butt;stroke-linejoin:miter;stroke-miterlimit:10;stroke-dasharray:none;stroke-opacity:1"
       transform="matrix(0.56346667,-1.2084,-1.2084,-0.56346667,6.93428,38.179587)" />
    <path
       id="path31"
       d="m 48.3051,-42.18513 c -5.06262,10.85675 -5.06262,19.86129 -2.06307,26.29373"
       style="fill:none;stroke:#000000;stroke-width:0.3985;stroke-linecap:butt;stroke-linejoin:miter;stroke-miterlimit:10;stroke-dasharray:2.98883, 2.98883;stroke-dashoffset:0;stroke-opacity:1"
       transform="matrix(1.3333333,0,0,-1.3333333,16.870667,16.870667)" />
    <path
       id="path32"
       d="M 4.41391,0 0.19925,1.6317 V 0 -1.6317 Z"
       style="fill:#000000;fill-opacity:1;fill-rule:nonzero;stroke:#000000;stroke-width:0.3985;stroke-linecap:butt;stroke-linejoin:miter;stroke-miterlimit:10;stroke-dasharray:none;stroke-opacity:1"
       transform="matrix(0.56346667,-1.2084,-1.2084,-0.56346667,78.470587,38.179587)" />
    <path
       id="path33"
       d="m 101.95734,-42.18513 c -5.06263,10.85675 -5.06263,19.86129 -2.06307,26.29373"
       style="fill:none;stroke:#000000;stroke-width:0.3985;stroke-linecap:butt;stroke-linejoin:miter;stroke-miterlimit:10;stroke-dasharray:2.98883, 2.98883;stroke-dashoffset:0;stroke-opacity:1"
       transform="matrix(1.3333333,0,0,-1.3333333,16.870667,16.870667)" />
    <path
       id="path34"
       d="M 4.41391,0 0.19925,1.6317 V 0 -1.6317 Z"
       style="fill:#000000;fill-opacity:1;fill-rule:nonzero;stroke:#000000;stroke-width:0.3985;stroke-linecap:butt;stroke-linejoin:miter;stroke-miterlimit:10;stroke-dasharray:none;stroke-opacity:1"
       transform="matrix(0.56346667,-1.2084,-1.2084,-0.56346667,150.00689,38.179587)" />
    <path
       id="path35"
       d="m 11.46709,-5.34712 c 10.85675,-5.06262 19.86129,-5.06262 26.29373,-2.06307"
       style="fill:none;stroke:#000000;stroke-width:0.3985;stroke-linecap:butt;stroke-linejoin:miter;stroke-miterlimit:10;stroke-dasharray:2.98883, 2.98883;stroke-dashoffset:0;stroke-opacity:1"
       transform="matrix(1.3333333,0,0,-1.3333333,16.870667,16.870667)" />
    <path
       id="path36"
       d="M 4.41391,0 0.19925,1.6317 V 0 -1.6317 Z"
       style="fill:#000000;fill-opacity:1;fill-rule:nonzero;stroke:#000000;stroke-width:0.3985;stroke-linecap:butt;stroke-linejoin:miter;stroke-miterlimit:10;stroke-dasharray:none;stroke-opacity:1"
       transform="matrix(1.2084,-0.56346667,-0.56346667,-1.2084,67.09804,26.807053)" />
    <path
       id="path37"
       d="m 65.11932,-5.34712 c 10.85675,-5.06262 19.8613,-5.06262 26.29374,-2.06307"
       style="fill:none;stroke:#000000;stroke-width:0.3985;stroke-linecap:butt;stroke-linejoin:miter;stroke-miterlimit:10;stroke-dasharray:2.98883, 2.98883;stroke-dashoffset:0;stroke-opacity:1"
       transform="matrix(1.3333333,0,0,-1.3333333,16.870667,16.870667)" />
    <path
       id="path38"
       d="M 4.41391,0 0.19925,1.6317 V 0 -1.6317 Z"
       style="fill:#000000;fill-opacity:1;fill-rule:nonzero;stroke:#000000;stroke-width:0.3985;stroke-linecap:butt;stroke-linejoin:miter;stroke-miterlimit:10;stroke-dasharray:none;stroke-opacity:1"
       transform="matrix(1.2084,-0.56346667,-0.56346667,-1.2084,138.63433,26.807053)" />
  </g>
</svg>
